<svg width="5492" height="715" viewBox="0 0 5492 715" fill="none" xmlns="http://www.w3.org/2000/svg">
<g clip-path="url(#clip0_731_33880)">
<path d="M7.53656 221.003V134.29H41.7474C48.2961 134.29 53.885 135.462 58.5142 137.804C63.1716 140.119 66.714 143.407 69.1415 147.67C71.5973 151.904 72.8251 156.886 72.8251 162.616C72.8251 168.374 71.5832 173.328 69.0992 177.477C66.6153 181.598 63.0163 184.76 58.3025 186.961C53.6168 189.163 47.9432 190.264 41.2817 190.264H18.3756V175.53H38.3179C41.818 175.53 44.7254 175.05 47.04 174.09C49.3546 173.13 51.0764 171.691 52.2055 169.771C53.3628 167.852 53.9414 165.467 53.9414 162.616C53.9414 159.737 53.3628 157.309 52.2055 155.333C51.0764 153.357 49.3404 151.861 46.9976 150.845C44.683 149.801 41.7616 149.279 38.2332 149.279H25.8699V221.003H7.53656ZM54.3648 181.542L75.916 221.003H55.6774L34.5919 181.542H54.3648ZM103.988 222.231C99.8382 222.231 96.1405 221.511 92.8944 220.071C89.6483 218.604 87.0797 216.444 85.1885 213.593C83.3255 210.714 82.394 207.129 82.394 202.839C82.394 199.226 83.0574 196.192 84.384 193.736C85.7107 191.28 87.5172 189.304 89.8036 187.808C92.0899 186.312 94.6868 185.183 97.5942 184.421C100.53 183.659 103.606 183.123 106.824 182.812C110.607 182.417 113.655 182.05 115.97 181.711C118.284 181.344 119.964 180.808 121.008 180.102C122.053 179.397 122.575 178.352 122.575 176.969V176.715C122.575 174.034 121.728 171.959 120.034 170.491C118.369 169.023 115.998 168.289 112.921 168.289C109.675 168.289 107.092 169.009 105.173 170.449C103.254 171.86 101.983 173.638 101.362 175.784L84.6804 174.429C85.5272 170.477 87.1926 167.062 89.6765 164.182C92.1605 161.275 95.3642 159.045 99.2878 157.493C103.24 155.912 107.812 155.122 113.006 155.122C116.619 155.122 120.077 155.545 123.379 156.392C126.71 157.239 129.66 158.551 132.228 160.329C134.825 162.108 136.872 164.394 138.368 167.189C139.864 169.955 140.612 173.271 140.612 177.138V221.003H123.506V211.984H122.998C121.954 214.017 120.557 215.809 118.807 217.362C117.057 218.886 114.954 220.086 112.498 220.961C110.042 221.807 107.205 222.231 103.988 222.231ZM109.153 209.783C111.806 209.783 114.149 209.261 116.182 208.216C118.214 207.144 119.809 205.704 120.966 203.897C122.123 202.091 122.702 200.045 122.702 197.758V190.857C122.137 191.224 121.361 191.562 120.373 191.873C119.413 192.155 118.327 192.423 117.113 192.677C115.899 192.903 114.685 193.115 113.472 193.312C112.258 193.482 111.157 193.637 110.169 193.778C108.052 194.089 106.203 194.583 104.623 195.26C103.042 195.938 101.814 196.855 100.939 198.012C100.064 199.141 99.6265 200.553 99.6265 202.246C99.6265 204.702 100.516 206.579 102.294 207.877C104.1 209.148 106.387 209.783 109.153 209.783ZM172.642 183.405V221.003H154.605V155.968H171.795V167.443H172.557C173.997 163.66 176.41 160.668 179.798 158.466C183.185 156.237 187.292 155.122 192.119 155.122C196.635 155.122 200.573 156.11 203.932 158.085C207.291 160.061 209.902 162.884 211.765 166.553C213.627 170.195 214.559 174.542 214.559 179.594V221.003H196.522V182.812C196.55 178.832 195.534 175.727 193.474 173.497C191.413 171.239 188.576 170.11 184.963 170.11C182.536 170.11 180.39 170.632 178.527 171.677C176.693 172.721 175.253 174.245 174.209 176.249C173.193 178.225 172.67 180.61 172.642 183.405ZM258.074 246.746C252.231 246.746 247.221 245.941 243.043 244.332C238.894 242.752 235.591 240.592 233.136 237.854C230.68 235.116 229.085 232.04 228.351 228.624L245.033 226.38C245.541 227.679 246.346 228.892 247.447 230.021C248.548 231.15 250.001 232.054 251.808 232.731C253.643 233.437 255.872 233.79 258.498 233.79C262.421 233.79 265.653 232.83 268.193 230.911C270.762 229.019 272.046 225.844 272.046 221.384V209.486H271.284C270.494 211.293 269.308 213.001 267.728 214.61C266.147 216.218 264.115 217.531 261.631 218.547C259.147 219.563 256.183 220.071 252.739 220.071C247.856 220.071 243.41 218.942 239.402 216.684C235.422 214.398 232.247 210.912 229.876 206.226C227.533 201.512 226.361 195.556 226.361 188.359C226.361 180.991 227.561 174.838 229.96 169.898C232.359 164.959 235.549 161.261 239.529 158.805C243.537 156.349 247.927 155.122 252.697 155.122C256.338 155.122 259.387 155.743 261.842 156.985C264.298 158.198 266.274 159.723 267.77 161.557C269.294 163.364 270.466 165.142 271.284 166.892H271.962V155.968H289.872V221.638C289.872 227.17 288.517 231.8 285.807 235.526C283.097 239.252 279.343 242.046 274.544 243.909C269.774 245.8 264.284 246.746 258.074 246.746ZM258.455 206.523C261.363 206.523 263.818 205.803 265.822 204.363C267.855 202.895 269.407 200.807 270.48 198.097C271.581 195.359 272.131 192.085 272.131 188.274C272.131 184.463 271.595 181.161 270.522 178.366C269.45 175.544 267.897 173.356 265.865 171.804C263.832 170.251 261.363 169.475 258.455 169.475C255.491 169.475 252.993 170.279 250.961 171.888C248.929 173.469 247.39 175.671 246.346 178.493C245.301 181.316 244.779 184.576 244.779 188.274C244.779 192.028 245.301 195.274 246.346 198.012C247.418 200.722 248.957 202.825 250.961 204.321C252.993 205.789 255.491 206.523 258.455 206.523ZM333.863 222.273C327.173 222.273 321.415 220.918 316.588 218.208C311.79 215.47 308.092 211.603 305.495 206.607C302.898 201.583 301.6 195.641 301.6 188.782C301.6 182.092 302.898 176.221 305.495 171.169C308.092 166.116 311.747 162.178 316.461 159.356C321.203 156.533 326.764 155.122 333.143 155.122C337.434 155.122 341.428 155.813 345.126 157.196C348.852 158.551 352.098 160.598 354.864 163.336C357.658 166.074 359.832 169.517 361.384 173.667C362.937 177.788 363.713 182.614 363.713 188.147V193.101H308.798V181.923H346.734C346.734 179.326 346.17 177.026 345.041 175.021C343.912 173.017 342.345 171.451 340.341 170.322C338.365 169.164 336.065 168.586 333.44 168.586C330.702 168.586 328.274 169.221 326.157 170.491C324.068 171.733 322.431 173.413 321.246 175.53C320.06 177.618 319.453 179.947 319.425 182.516V193.143C319.425 196.361 320.018 199.141 321.203 201.484C322.417 203.827 324.125 205.633 326.327 206.904C328.528 208.174 331.139 208.809 334.159 208.809C336.164 208.809 337.998 208.527 339.664 207.962C341.329 207.398 342.755 206.551 343.94 205.422C345.126 204.293 346.029 202.91 346.65 201.272L363.332 202.373C362.485 206.381 360.749 209.882 358.124 212.874C355.527 215.837 352.168 218.152 348.047 219.817C343.954 221.455 339.226 222.273 333.863 222.273ZM436.146 190.857H451.728L459.561 200.934L467.266 209.91L481.789 228.116H464.684L454.691 215.837L449.568 208.555L436.146 190.857ZM483.102 177.647C483.102 187.103 481.309 195.147 477.724 201.78C474.168 208.414 469.313 213.48 463.159 216.981C457.034 220.453 450.147 222.188 442.497 222.188C434.792 222.188 427.876 220.438 421.751 216.938C415.626 213.438 410.785 208.371 407.228 201.738C403.671 195.105 401.893 187.074 401.893 177.647C401.893 168.191 403.671 160.146 407.228 153.513C410.785 146.879 415.626 141.827 421.751 138.355C427.876 134.855 434.792 133.105 442.497 133.105C450.147 133.105 457.034 134.855 463.159 138.355C469.313 141.827 474.168 146.879 477.724 153.513C481.309 160.146 483.102 168.191 483.102 177.647ZM464.514 177.647C464.514 171.521 463.597 166.356 461.762 162.15C459.956 157.944 457.401 154.755 454.099 152.581C450.796 150.408 446.929 149.321 442.497 149.321C438.066 149.321 434.199 150.408 430.896 152.581C427.594 154.755 425.025 157.944 423.19 162.15C421.384 166.356 420.481 171.521 420.481 177.647C420.481 183.772 421.384 188.937 423.19 193.143C425.025 197.349 427.594 200.538 430.896 202.712C434.199 204.885 438.066 205.972 442.497 205.972C446.929 205.972 450.796 204.885 454.099 202.712C457.401 200.538 459.956 197.349 461.762 193.143C463.597 188.937 464.514 183.772 464.514 177.647ZM538.049 193.312V155.968H556.086V221.003H538.768V209.19H538.091C536.623 213.001 534.182 216.063 530.766 218.378C527.379 220.692 523.244 221.85 518.36 221.85C514.014 221.85 510.189 220.862 506.886 218.886C503.584 216.91 501.001 214.101 499.138 210.46C497.303 206.819 496.372 202.458 496.344 197.377V155.968H514.381V194.159C514.409 197.998 515.439 201.032 517.471 203.262C519.504 205.492 522.228 206.607 525.643 206.607C527.816 206.607 529.849 206.113 531.74 205.125C533.631 204.109 535.155 202.613 536.313 200.637C537.498 198.661 538.077 196.22 538.049 193.312ZM600.151 222.273C593.461 222.273 587.703 220.918 582.876 218.208C578.078 215.47 574.38 211.603 571.783 206.607C569.186 201.583 567.888 195.641 567.888 188.782C567.888 182.092 569.186 176.221 571.783 171.169C574.38 166.116 578.035 162.178 582.749 159.356C587.491 156.533 593.052 155.122 599.431 155.122C603.722 155.122 607.716 155.813 611.414 157.196C615.14 158.551 618.386 160.598 621.152 163.336C623.946 166.074 626.12 169.517 627.672 173.667C629.225 177.788 630.001 182.614 630.001 188.147V193.101H575.086V181.923H613.023C613.023 179.326 612.458 177.026 611.329 175.021C610.2 173.017 608.633 171.451 606.629 170.322C604.653 169.164 602.353 168.586 599.728 168.586C596.99 168.586 594.562 169.221 592.445 170.491C590.356 171.733 588.719 173.413 587.534 175.53C586.348 177.618 585.741 179.947 585.713 182.516V193.143C585.713 196.361 586.306 199.141 587.491 201.484C588.705 203.827 590.413 205.633 592.615 206.904C594.816 208.174 597.427 208.809 600.448 208.809C602.452 208.809 604.286 208.527 605.952 207.962C607.617 207.398 609.043 206.551 610.228 205.422C611.414 204.293 612.317 202.91 612.938 201.272L629.62 202.373C628.773 206.381 627.037 209.882 624.412 212.874C621.815 215.837 618.456 218.152 614.335 219.817C610.242 221.455 605.514 222.273 600.151 222.273ZM641.772 221.003V155.968H659.258V167.316H659.936C661.121 163.279 663.111 160.231 665.906 158.17C668.7 156.081 671.918 155.037 675.559 155.037C676.462 155.037 677.436 155.093 678.481 155.206C679.525 155.319 680.442 155.474 681.233 155.672V171.677C680.386 171.423 679.214 171.197 677.718 170.999C676.222 170.802 674.853 170.703 673.611 170.703C670.958 170.703 668.587 171.281 666.498 172.439C664.438 173.568 662.801 175.148 661.587 177.181C660.401 179.213 659.809 181.556 659.809 184.209V221.003H641.772ZM703.673 245.391C701.387 245.391 699.241 245.207 697.237 244.84C695.261 244.502 693.624 244.064 692.326 243.528L696.39 230.064C698.507 230.713 700.413 231.066 702.106 231.122C703.828 231.179 705.31 230.784 706.552 229.937C707.822 229.09 708.853 227.65 709.643 225.618L710.701 222.866L687.372 155.968H706.34L719.805 203.728H720.482L734.073 155.968H753.169L727.892 228.031C726.678 231.532 725.027 234.58 722.938 237.177C720.877 239.802 718.266 241.82 715.105 243.232C711.943 244.671 708.133 245.391 703.673 245.391Z" fill="black"/>
<rect x="1633.39" y="129.781" width="3883.61" height="273.205" fill="#E9E8E8"/>
<rect x="1912" y="132.08" width="3319" height="273" fill="#1B75BB"/>
<rect x="1791" y="54.6387" width="3553.4" height="416.638" fill="#EF7222" fill-opacity="0.33"/>
<path d="M3388.61 252.293C3388.07 250.404 3387.3 248.735 3386.32 247.287C3385.34 245.812 3384.13 244.57 3382.71 243.561C3381.31 242.526 3379.71 241.737 3377.9 241.194C3376.11 240.651 3374.13 240.379 3371.96 240.379C3367.9 240.379 3364.33 241.388 3361.25 243.406C3358.2 245.424 3355.82 248.36 3354.11 252.215C3352.4 256.044 3351.55 260.727 3351.55 266.264C3351.55 271.8 3352.39 276.509 3354.07 280.389C3355.75 284.27 3358.13 287.233 3361.21 289.276C3364.29 291.294 3367.92 292.303 3372.12 292.303C3375.92 292.303 3379.17 291.631 3381.86 290.285C3384.57 288.914 3386.64 286.987 3388.07 284.503C3389.51 282.019 3390.24 279.083 3390.24 275.694L3393.65 276.198H3373.16V263.547H3406.42V273.559C3406.42 280.545 3404.95 286.547 3402 291.566C3399.05 296.559 3394.99 300.414 3389.81 303.131C3384.64 305.821 3378.71 307.167 3372.04 307.167C3364.59 307.167 3358.04 305.524 3352.4 302.238C3346.76 298.927 3342.36 294.231 3339.21 288.151C3336.08 282.045 3334.51 274.801 3334.51 266.419C3334.51 259.977 3335.44 254.233 3337.3 249.188C3339.19 244.117 3341.83 239.823 3345.22 236.304C3348.61 232.786 3352.56 230.108 3357.06 228.271C3361.56 226.434 3366.44 225.516 3371.69 225.516C3376.19 225.516 3380.38 226.175 3384.26 227.495C3388.14 228.788 3391.58 230.625 3394.58 233.005C3397.61 235.386 3400.08 238.219 3402 241.504C3403.91 244.764 3405.14 248.36 3405.68 252.293H3388.61ZM3445.9 307.244C3439.77 307.244 3434.49 306.002 3430.06 303.519C3425.67 301.009 3422.28 297.465 3419.9 292.886C3417.52 288.28 3416.33 282.834 3416.33 276.548C3416.33 270.416 3417.52 265.035 3419.9 260.404C3422.28 255.773 3425.63 252.163 3429.95 249.576C3434.29 246.989 3439.39 245.696 3445.24 245.696C3449.17 245.696 3452.83 246.329 3456.22 247.597C3459.64 248.839 3462.61 250.715 3465.15 253.224C3467.71 255.734 3469.7 258.89 3471.12 262.693C3472.55 266.471 3473.26 270.895 3473.26 275.965V280.506H3422.92V270.261H3457.7C3457.7 267.881 3457.18 265.772 3456.14 263.935C3455.11 262.098 3453.67 260.662 3451.84 259.627C3450.02 258.567 3447.92 258.036 3445.51 258.036C3443 258.036 3440.78 258.618 3438.84 259.783C3436.92 260.921 3435.42 262.46 3434.33 264.401C3433.25 266.315 3432.69 268.45 3432.66 270.804V280.545C3432.66 283.494 3433.21 286.042 3434.29 288.19C3435.41 290.337 3436.97 291.993 3438.99 293.157C3441.01 294.321 3443.4 294.904 3446.17 294.904C3448.01 294.904 3449.69 294.645 3451.21 294.127C3452.74 293.61 3454.05 292.834 3455.13 291.799C3456.22 290.764 3457.05 289.496 3457.62 287.996L3472.91 289.005C3472.13 292.679 3470.54 295.887 3468.13 298.629C3465.75 301.346 3462.68 303.467 3458.9 304.993C3455.15 306.494 3450.81 307.244 3445.9 307.244ZM3500.58 271.619V306.08H3484.05V246.472H3499.8V256.989H3500.5C3501.82 253.522 3504.03 250.779 3507.14 248.761C3510.24 246.717 3514.01 245.696 3518.43 245.696C3522.57 245.696 3526.18 246.601 3529.26 248.412C3532.34 250.223 3534.73 252.81 3536.44 256.174C3538.14 259.511 3539 263.495 3539 268.126V306.08H3522.47V271.076C3522.49 267.428 3521.56 264.582 3519.67 262.538C3517.78 260.468 3515.18 259.433 3511.87 259.433C3509.65 259.433 3507.68 259.912 3505.97 260.869C3504.29 261.827 3502.97 263.224 3502.01 265.061C3501.08 266.872 3500.6 269.058 3500.58 271.619ZM3579.19 307.244C3573.06 307.244 3567.78 306.002 3563.36 303.519C3558.96 301.009 3555.57 297.465 3553.19 292.886C3550.81 288.28 3549.62 282.834 3549.62 276.548C3549.62 270.416 3550.81 265.035 3553.19 260.404C3555.57 255.773 3558.92 252.163 3563.24 249.576C3567.59 246.989 3572.69 245.696 3578.53 245.696C3582.47 245.696 3586.13 246.329 3589.52 247.597C3592.93 248.839 3595.91 250.715 3598.44 253.224C3601 255.734 3602.99 258.89 3604.42 262.693C3605.84 266.471 3606.55 270.895 3606.55 275.965V280.506H3556.22V270.261H3590.99C3590.99 267.881 3590.47 265.772 3589.44 263.935C3588.4 262.098 3586.97 260.662 3585.13 259.627C3583.32 258.567 3581.21 258.036 3578.8 258.036C3576.29 258.036 3574.07 258.618 3572.13 259.783C3570.21 260.921 3568.71 262.46 3567.63 264.401C3566.54 266.315 3565.98 268.45 3565.96 270.804V280.545C3565.96 283.494 3566.5 286.042 3567.59 288.19C3568.7 290.337 3570.27 291.993 3572.28 293.157C3574.3 294.321 3576.7 294.904 3579.46 294.904C3581.3 294.904 3582.98 294.645 3584.51 294.127C3586.04 293.61 3587.34 292.834 3588.43 291.799C3589.52 290.764 3590.34 289.496 3590.91 287.996L3606.2 289.005C3605.43 292.679 3603.84 295.887 3601.43 298.629C3599.05 301.346 3595.97 303.467 3592.19 304.993C3588.44 306.494 3584.11 307.244 3579.19 307.244ZM3658.7 226.602L3674.73 253.69H3675.35L3691.45 226.602H3710.43L3686.17 266.341L3710.97 306.08H3691.65L3675.35 278.954H3674.73L3658.43 306.08H3639.18L3664.05 266.341L3639.64 226.602H3658.7Z" fill="white"/>
<path d="M1791.1 46.2729V534.627" stroke="#F9A533" stroke-width="13.6603" stroke-linecap="round"/>
<path d="M5339.57 46.2729V534.627" stroke="#F9A533" stroke-width="13.6603" stroke-linecap="round"/>
<path d="M1611.73 594.364C1611.39 591.414 1609.97 589.125 1607.49 587.495C1605 585.865 1601.96 585.05 1598.35 585.05C1595.71 585.05 1593.4 585.477 1591.42 586.33C1589.46 587.184 1587.93 588.358 1586.82 589.852C1585.73 591.346 1585.19 593.044 1585.19 594.946C1585.19 596.537 1585.57 597.905 1586.33 599.05C1587.1 600.175 1588.09 601.116 1589.29 601.873C1590.5 602.61 1591.76 603.221 1593.08 603.706C1594.4 604.172 1595.61 604.551 1596.72 604.842L1602.77 606.471C1604.32 606.879 1606.05 607.442 1607.95 608.16C1609.87 608.878 1611.71 609.857 1613.45 611.099C1615.22 612.322 1616.67 613.893 1617.82 615.814C1618.96 617.735 1619.53 620.093 1619.53 622.887C1619.53 626.108 1618.69 629.019 1617 631.619C1615.33 634.219 1612.89 636.285 1609.67 637.818C1606.47 639.351 1602.58 640.118 1598 640.118C1593.73 640.118 1590.03 639.429 1586.91 638.051C1583.8 636.673 1581.36 634.752 1579.57 632.288C1577.81 629.824 1576.81 626.962 1576.57 623.702H1584.03C1584.22 625.953 1584.98 627.816 1586.3 629.29C1587.64 630.746 1589.32 631.832 1591.36 632.55C1593.42 633.249 1595.63 633.598 1598 633.598C1600.75 633.598 1603.23 633.152 1605.42 632.259C1607.61 631.347 1609.35 630.086 1610.63 628.475C1611.91 626.845 1612.55 624.944 1612.55 622.771C1612.55 620.791 1612 619.181 1610.89 617.939C1609.78 616.697 1608.33 615.688 1606.52 614.912C1604.72 614.136 1602.77 613.457 1600.67 612.875L1593.34 610.779C1588.68 609.44 1585 607.529 1582.28 605.045C1579.56 602.562 1578.2 599.311 1578.2 595.295C1578.2 591.957 1579.11 589.047 1580.91 586.563C1582.74 584.06 1585.18 582.12 1588.25 580.742C1591.33 579.345 1594.78 578.646 1598.58 578.646C1602.42 578.646 1605.84 579.335 1608.82 580.713C1611.81 582.071 1614.18 583.934 1615.93 586.301C1617.69 588.669 1618.62 591.356 1618.72 594.364H1611.73ZM1649.91 594.364V600.185H1626.75V594.364H1649.91ZM1633.5 583.653H1640.37V626.263C1640.37 628.204 1640.65 629.659 1641.21 630.629C1641.79 631.58 1642.53 632.22 1643.42 632.55C1644.34 632.861 1645.3 633.016 1646.3 633.016C1647.06 633.016 1647.68 632.977 1648.17 632.899C1648.65 632.802 1649.04 632.725 1649.33 632.667L1650.73 638.837C1650.26 639.012 1649.61 639.186 1648.78 639.361C1647.94 639.555 1646.89 639.652 1645.61 639.652C1643.67 639.652 1641.76 639.235 1639.9 638.4C1638.06 637.566 1636.53 636.295 1635.3 634.588C1634.1 632.88 1633.5 630.726 1633.5 628.126V583.653ZM1673.4 640.118C1670.57 640.118 1668 639.584 1665.69 638.517C1663.38 637.43 1661.55 635.868 1660.19 633.831C1658.83 631.774 1658.15 629.29 1658.15 626.38C1658.15 623.818 1658.66 621.742 1659.66 620.151C1660.67 618.541 1662.02 617.279 1663.71 616.367C1665.4 615.455 1667.26 614.776 1669.3 614.33C1671.36 613.864 1673.42 613.496 1675.5 613.224C1678.21 612.875 1680.42 612.613 1682.1 612.438C1683.81 612.244 1685.05 611.924 1685.83 611.478C1686.63 611.031 1687.02 610.255 1687.02 609.149V608.916C1687.02 606.045 1686.24 603.813 1684.67 602.222C1683.11 600.631 1680.76 599.835 1677.59 599.835C1674.31 599.835 1671.74 600.553 1669.88 601.989C1668.02 603.425 1666.71 604.958 1665.95 606.588L1659.43 604.259C1660.6 601.543 1662.15 599.428 1664.09 597.914C1666.05 596.382 1668.18 595.314 1670.49 594.713C1672.82 594.092 1675.11 593.781 1677.36 593.781C1678.8 593.781 1680.45 593.956 1682.31 594.305C1684.19 594.635 1686 595.324 1687.75 596.372C1689.52 597.42 1690.98 599.001 1692.15 601.116C1693.31 603.231 1693.89 606.064 1693.89 609.615V639.07H1687.02V633.016H1686.67C1686.21 633.986 1685.43 635.024 1684.35 636.13C1683.26 637.236 1681.81 638.177 1680.01 638.953C1678.2 639.73 1676 640.118 1673.4 640.118ZM1674.45 633.947C1677.17 633.947 1679.46 633.414 1681.32 632.346C1683.2 631.279 1684.62 629.902 1685.57 628.213C1686.54 626.525 1687.02 624.75 1687.02 622.887V616.6C1686.73 616.95 1686.09 617.27 1685.1 617.561C1684.13 617.832 1683.01 618.075 1681.73 618.288C1680.47 618.482 1679.23 618.657 1678.03 618.812C1676.85 618.948 1675.89 619.065 1675.15 619.162C1673.36 619.394 1671.69 619.773 1670.14 620.297C1668.61 620.801 1667.37 621.568 1666.42 622.596C1665.49 623.605 1665.02 624.983 1665.02 626.729C1665.02 629.116 1665.9 630.92 1667.67 632.143C1669.45 633.346 1671.71 633.947 1674.45 633.947ZM1706.43 639.07V594.364H1713.07V601.116H1713.53C1714.35 598.904 1715.82 597.109 1717.96 595.731C1720.09 594.354 1722.5 593.665 1725.17 593.665C1725.68 593.665 1726.31 593.675 1727.07 593.694C1727.82 593.714 1728.39 593.743 1728.78 593.781V600.767C1728.55 600.709 1728.02 600.621 1727.18 600.505C1726.37 600.369 1725.5 600.301 1724.59 600.301C1722.42 600.301 1720.48 600.757 1718.77 601.669C1717.08 602.562 1715.74 603.803 1714.75 605.395C1713.78 606.966 1713.3 608.761 1713.3 610.779V639.07H1706.43ZM1759.17 594.364V600.185H1736V594.364H1759.17ZM1742.75 583.653H1749.62V626.263C1749.62 628.204 1749.9 629.659 1750.47 630.629C1751.05 631.58 1751.79 632.22 1752.68 632.55C1753.59 632.861 1754.55 633.016 1755.56 633.016C1756.32 633.016 1756.94 632.977 1757.42 632.899C1757.91 632.802 1758.3 632.725 1758.59 632.667L1759.98 638.837C1759.52 639.012 1758.87 639.186 1758.03 639.361C1757.2 639.555 1756.14 639.652 1754.86 639.652C1752.92 639.652 1751.02 639.235 1749.16 638.4C1747.31 637.566 1745.78 636.295 1744.56 634.588C1743.36 632.88 1742.75 630.726 1742.75 628.126V583.653ZM1792.55 655.835V594.364H1799.19V601.465H1800C1800.51 600.689 1801.21 599.7 1802.1 598.497C1803.01 597.274 1804.31 596.187 1806 595.237C1807.71 594.267 1810.02 593.781 1812.93 593.781C1816.69 593.781 1820.01 594.722 1822.88 596.605C1825.75 598.487 1827.99 601.155 1829.6 604.609C1831.22 608.063 1832.02 612.137 1832.02 616.833C1832.02 621.568 1831.22 625.672 1829.6 629.145C1827.99 632.599 1825.76 635.276 1822.91 637.178C1820.06 639.06 1816.77 640.001 1813.04 640.001C1810.17 640.001 1807.87 639.526 1806.15 638.575C1804.42 637.605 1803.09 636.509 1802.16 635.286C1801.23 634.044 1800.51 633.016 1800 632.201H1799.42V655.835H1792.55ZM1799.31 616.717C1799.31 620.093 1799.8 623.071 1800.79 625.652C1801.78 628.213 1803.23 630.222 1805.13 631.677C1807.03 633.113 1809.36 633.831 1812.11 633.831C1814.98 633.831 1817.38 633.074 1819.3 631.561C1821.24 630.028 1822.7 627.971 1823.67 625.39C1824.66 622.79 1825.15 619.899 1825.15 616.717C1825.15 613.573 1824.67 610.74 1823.7 608.218C1822.75 605.676 1821.3 603.668 1819.36 602.193C1817.44 600.699 1815.02 599.952 1812.11 599.952C1809.32 599.952 1806.97 600.66 1805.07 602.077C1803.17 603.474 1801.73 605.433 1800.76 607.956C1799.79 610.459 1799.31 613.379 1799.31 616.717ZM1860.66 640.001C1856.62 640.001 1853.08 639.041 1850.04 637.12C1847.01 635.199 1844.64 632.511 1842.94 629.057C1841.25 625.604 1840.4 621.568 1840.4 616.95C1840.4 612.293 1841.25 608.228 1842.94 604.754C1844.64 601.281 1847.01 598.584 1850.04 596.663C1853.08 594.742 1856.62 593.781 1860.66 593.781C1864.7 593.781 1868.23 594.742 1871.26 596.663C1874.3 598.584 1876.67 601.281 1878.36 604.754C1880.06 608.228 1880.92 612.293 1880.92 616.95C1880.92 621.568 1880.06 625.604 1878.36 629.057C1876.67 632.511 1874.3 635.199 1871.26 637.12C1868.23 639.041 1864.7 640.001 1860.66 640.001ZM1860.66 633.831C1863.73 633.831 1866.25 633.045 1868.23 631.473C1870.21 629.902 1871.67 627.835 1872.62 625.274C1873.57 622.712 1874.05 619.938 1874.05 616.95C1874.05 613.961 1873.57 611.177 1872.62 608.596C1871.67 606.015 1870.21 603.93 1868.23 602.338C1866.25 600.747 1863.73 599.952 1860.66 599.952C1857.59 599.952 1855.07 600.747 1853.09 602.338C1851.11 603.93 1849.65 606.015 1848.7 608.596C1847.75 611.177 1847.27 613.961 1847.27 616.95C1847.27 619.938 1847.75 622.712 1848.7 625.274C1849.65 627.835 1851.11 629.902 1853.09 631.473C1855.07 633.045 1857.59 633.831 1860.66 633.831ZM1923.07 604.376L1916.9 606.122C1916.51 605.094 1915.94 604.095 1915.18 603.124C1914.45 602.135 1913.44 601.32 1912.16 600.679C1910.88 600.039 1909.24 599.719 1907.24 599.719C1904.5 599.719 1902.22 600.35 1900.4 601.611C1898.59 602.853 1897.69 604.434 1897.69 606.355C1897.69 608.063 1898.31 609.411 1899.55 610.401C1900.79 611.39 1902.74 612.215 1905.37 612.875L1912.01 614.505C1916.01 615.475 1918.99 616.959 1920.95 618.958C1922.91 620.937 1923.89 623.489 1923.89 626.613C1923.89 629.174 1923.15 631.464 1921.67 633.482C1920.22 635.5 1918.18 637.091 1915.56 638.255C1912.94 639.419 1909.9 640.001 1906.42 640.001C1901.86 640.001 1898.09 639.012 1895.1 637.032C1892.11 635.053 1890.22 632.162 1889.42 628.359L1895.94 626.729C1896.56 629.135 1897.74 630.94 1899.47 632.143C1901.21 633.346 1903.49 633.947 1906.31 633.947C1909.51 633.947 1912.05 633.268 1913.93 631.91C1915.83 630.532 1916.78 628.883 1916.78 626.962C1916.78 625.41 1916.24 624.11 1915.15 623.062C1914.07 621.995 1912.4 621.199 1910.15 620.675L1902.7 618.929C1898.6 617.959 1895.59 616.455 1893.67 614.417C1891.77 612.361 1890.82 609.79 1890.82 606.704C1890.82 604.182 1891.53 601.95 1892.95 600.01C1894.38 598.07 1896.33 596.546 1898.8 595.44C1901.28 594.334 1904.09 593.781 1907.24 593.781C1911.66 593.781 1915.13 594.752 1917.66 596.692C1920.2 598.632 1922 601.194 1923.07 604.376ZM1934.23 639.07V594.364H1941.09V639.07H1934.23ZM1937.72 586.912C1936.38 586.912 1935.22 586.456 1934.25 585.545C1933.3 584.633 1932.83 583.536 1932.83 582.256C1932.83 580.975 1933.3 579.879 1934.25 578.967C1935.22 578.055 1936.38 577.599 1937.72 577.599C1939.06 577.599 1940.2 578.055 1941.15 578.967C1942.12 579.879 1942.61 580.975 1942.61 582.256C1942.61 583.536 1942.12 584.633 1941.15 585.545C1940.2 586.456 1939.06 586.912 1937.72 586.912ZM1973.12 594.364V600.185H1949.95V594.364H1973.12ZM1956.7 583.653H1963.57V626.263C1963.57 628.204 1963.85 629.659 1964.42 630.629C1965 631.58 1965.73 632.22 1966.63 632.55C1967.54 632.861 1968.5 633.016 1969.51 633.016C1970.27 633.016 1970.89 632.977 1971.37 632.899C1971.86 632.802 1972.24 632.725 1972.54 632.667L1973.93 638.837C1973.47 639.012 1972.82 639.186 1971.98 639.361C1971.15 639.555 1970.09 639.652 1968.81 639.652C1966.87 639.652 1964.97 639.235 1963.11 638.4C1961.26 637.566 1959.73 636.295 1958.51 634.588C1957.3 632.88 1956.7 630.726 1956.7 628.126V583.653ZM1983.45 639.07V594.364H1990.32V639.07H1983.45ZM1986.94 586.912C1985.6 586.912 1984.45 586.456 1983.48 585.545C1982.53 584.633 1982.05 583.536 1982.05 582.256C1982.05 580.975 1982.53 579.879 1983.48 578.967C1984.45 578.055 1985.6 577.599 1986.94 577.599C1988.28 577.599 1989.43 578.055 1990.38 578.967C1991.35 579.879 1991.83 580.975 1991.83 582.256C1991.83 583.536 1991.35 584.633 1990.38 585.545C1989.43 586.456 1988.28 586.912 1986.94 586.912ZM2021.06 640.001C2017.03 640.001 2013.48 639.041 2010.44 637.12C2007.41 635.199 2005.04 632.511 2003.34 629.057C2001.65 625.604 2000.8 621.568 2000.8 616.95C2000.8 612.293 2001.65 608.228 2003.34 604.754C2005.04 601.281 2007.41 598.584 2010.44 596.663C2013.48 594.742 2017.03 593.781 2021.06 593.781C2025.1 593.781 2028.63 594.742 2031.66 596.663C2034.7 598.584 2037.07 601.281 2038.76 604.754C2040.47 608.228 2041.32 612.293 2041.32 616.95C2041.32 621.568 2040.47 625.604 2038.76 629.057C2037.07 632.511 2034.7 635.199 2031.66 637.12C2028.63 639.041 2025.1 640.001 2021.06 640.001ZM2021.06 633.831C2024.13 633.831 2026.65 633.045 2028.63 631.473C2030.61 629.902 2032.07 627.835 2033.02 625.274C2033.98 622.712 2034.45 619.938 2034.45 616.95C2034.45 613.961 2033.98 611.177 2033.02 608.596C2032.07 606.015 2030.61 603.93 2028.63 602.338C2026.65 600.747 2024.13 599.952 2021.06 599.952C2018 599.952 2015.47 600.747 2013.49 602.338C2011.52 603.93 2010.05 606.015 2009.1 608.596C2008.15 611.177 2007.67 613.961 2007.67 616.95C2007.67 619.938 2008.15 622.712 2009.1 625.274C2010.05 627.835 2011.52 629.902 2013.49 631.473C2015.47 633.045 2018 633.831 2021.06 633.831ZM2058.67 612.176V639.07H2051.8V594.364H2058.44V601.349H2059.02C2060.07 599.079 2061.66 597.255 2063.8 595.877C2065.93 594.48 2068.69 593.781 2072.06 593.781C2075.09 593.781 2077.74 594.402 2080.01 595.644C2082.28 596.867 2084.04 598.729 2085.31 601.232C2086.57 603.716 2087.2 606.86 2087.2 610.663V639.07H2080.33V611.128C2080.33 607.616 2079.42 604.88 2077.59 602.921C2075.77 600.941 2073.27 599.952 2070.08 599.952C2067.89 599.952 2065.93 600.427 2064.2 601.378C2062.5 602.329 2061.15 603.716 2060.16 605.54C2059.17 607.364 2058.67 609.576 2058.67 612.176Z" fill="black"/>
<path d="M5018.22 639.07V579.461H5054.19V585.865H5025.44V606.006H5052.33V612.409H5025.44V632.667H5054.66V639.07H5018.22ZM5073.14 612.176V639.07H5066.27V594.364H5072.91V601.349H5073.49C5074.54 599.079 5076.13 597.255 5078.26 595.877C5080.4 594.48 5083.15 593.781 5086.53 593.781C5089.56 593.781 5092.2 594.402 5094.48 595.644C5096.75 596.867 5098.51 598.729 5099.77 601.232C5101.03 603.716 5101.66 606.86 5101.66 610.663V639.07H5094.8V611.128C5094.8 607.616 5093.88 604.88 5092.06 602.921C5090.24 600.941 5087.73 599.952 5084.55 599.952C5082.36 599.952 5080.4 600.427 5078.67 601.378C5076.96 602.329 5075.61 603.716 5074.62 605.54C5073.64 607.364 5073.14 609.576 5073.14 612.176ZM5131.1 640.001C5127.37 640.001 5124.08 639.06 5121.23 637.178C5118.38 635.276 5116.15 632.599 5114.54 629.145C5112.93 625.672 5112.12 621.568 5112.12 616.833C5112.12 612.137 5112.93 608.063 5114.54 604.609C5116.15 601.155 5118.39 598.487 5121.26 596.605C5124.13 594.722 5127.45 593.781 5131.21 593.781C5134.12 593.781 5136.42 594.267 5138.11 595.237C5139.82 596.187 5141.12 597.274 5142.01 598.497C5142.92 599.7 5143.63 600.689 5144.14 601.465H5144.72V579.461H5151.59V639.07H5144.95V632.201H5144.14C5143.63 633.016 5142.91 634.044 5141.98 635.286C5141.05 636.509 5139.72 637.605 5138 638.575C5136.27 639.526 5133.97 640.001 5131.1 640.001ZM5132.03 633.831C5134.78 633.831 5137.11 633.113 5139.01 631.677C5140.92 630.222 5142.36 628.213 5143.35 625.652C5144.34 623.071 5144.84 620.093 5144.84 616.717C5144.84 613.379 5144.35 610.459 5143.38 607.956C5142.41 605.433 5140.97 603.474 5139.07 602.077C5137.17 600.66 5134.82 599.952 5132.03 599.952C5129.12 599.952 5126.69 600.699 5124.75 602.193C5122.83 603.668 5121.39 605.676 5120.42 608.218C5119.46 610.74 5118.99 613.573 5118.99 616.717C5118.99 619.899 5119.47 622.79 5120.44 625.39C5121.43 627.971 5122.89 630.028 5124.81 631.561C5126.75 633.074 5129.16 633.831 5132.03 633.831ZM5188.17 655.835V594.364H5194.81V601.465H5195.62C5196.13 600.689 5196.83 599.7 5197.72 598.497C5198.63 597.274 5199.93 596.187 5201.62 595.237C5203.33 594.267 5205.64 593.781 5208.55 593.781C5212.31 593.781 5215.63 594.722 5218.5 596.605C5221.37 598.487 5223.61 601.155 5225.22 604.609C5226.84 608.063 5227.64 612.137 5227.64 616.833C5227.64 621.568 5226.84 625.672 5225.22 629.145C5223.61 632.599 5221.38 635.276 5218.53 637.178C5215.68 639.06 5212.39 640.001 5208.66 640.001C5205.79 640.001 5203.49 639.526 5201.77 638.575C5200.04 637.605 5198.71 636.509 5197.78 635.286C5196.85 634.044 5196.13 633.016 5195.62 632.201H5195.04V655.835H5188.17ZM5194.93 616.717C5194.93 620.093 5195.42 623.071 5196.41 625.652C5197.4 628.213 5198.85 630.222 5200.75 631.677C5202.65 633.113 5204.98 633.831 5207.73 633.831C5210.6 633.831 5213 633.074 5214.92 631.561C5216.86 630.028 5218.32 627.971 5219.29 625.39C5220.28 622.79 5220.77 619.899 5220.77 616.717C5220.77 613.573 5220.29 610.74 5219.32 608.218C5218.37 605.676 5216.92 603.668 5214.98 602.193C5213.06 600.699 5210.64 599.952 5207.73 599.952C5204.94 599.952 5202.59 600.66 5200.69 602.077C5198.79 603.474 5197.35 605.433 5196.38 607.956C5195.41 610.459 5194.93 613.379 5194.93 616.717ZM5256.28 640.001C5252.24 640.001 5248.7 639.041 5245.66 637.12C5242.63 635.199 5240.26 632.511 5238.56 629.057C5236.87 625.604 5236.02 621.568 5236.02 616.95C5236.02 612.293 5236.87 608.228 5238.56 604.754C5240.26 601.281 5242.63 598.584 5245.66 596.663C5248.7 594.742 5252.24 593.781 5256.28 593.781C5260.32 593.781 5263.85 594.742 5266.88 596.663C5269.92 598.584 5272.29 601.281 5273.98 604.754C5275.68 608.228 5276.54 612.293 5276.54 616.95C5276.54 621.568 5275.68 625.604 5273.98 629.057C5272.29 632.511 5269.92 635.199 5266.88 637.12C5263.85 639.041 5260.32 640.001 5256.28 640.001ZM5256.28 633.831C5259.35 633.831 5261.87 633.045 5263.85 631.473C5265.83 629.902 5267.29 627.835 5268.24 625.274C5269.19 622.712 5269.67 619.938 5269.67 616.95C5269.67 613.961 5269.19 611.177 5268.24 608.596C5267.29 606.015 5265.83 603.93 5263.85 602.338C5261.87 600.747 5259.35 599.952 5256.28 599.952C5253.21 599.952 5250.69 600.747 5248.71 602.338C5246.73 603.93 5245.27 606.015 5244.32 608.596C5243.37 611.177 5242.89 613.961 5242.89 616.95C5242.89 619.938 5243.37 622.712 5244.32 625.274C5245.27 627.835 5246.73 629.902 5248.71 631.473C5250.69 633.045 5253.21 633.831 5256.28 633.831ZM5318.69 604.376L5312.52 606.122C5312.13 605.094 5311.56 604.095 5310.8 603.124C5310.07 602.135 5309.06 601.32 5307.78 600.679C5306.5 600.039 5304.86 599.719 5302.86 599.719C5300.12 599.719 5297.84 600.35 5296.02 601.611C5294.21 602.853 5293.31 604.434 5293.31 606.355C5293.31 608.063 5293.93 609.411 5295.17 610.401C5296.41 611.39 5298.36 612.215 5300.99 612.875L5307.63 614.505C5311.63 615.475 5314.61 616.959 5316.57 618.958C5318.53 620.937 5319.51 623.489 5319.51 626.613C5319.51 629.174 5318.77 631.464 5317.29 633.482C5315.84 635.5 5313.8 637.091 5311.18 638.255C5308.56 639.419 5305.52 640.001 5302.04 640.001C5297.48 640.001 5293.71 639.012 5290.72 637.032C5287.73 635.053 5285.84 632.162 5285.04 628.359L5291.56 626.729C5292.18 629.135 5293.36 630.94 5295.09 632.143C5296.83 633.346 5299.11 633.947 5301.93 633.947C5305.13 633.947 5307.67 633.268 5309.55 631.91C5311.45 630.532 5312.4 628.883 5312.4 626.962C5312.4 625.41 5311.86 624.11 5310.77 623.062C5309.69 621.995 5308.02 621.199 5305.77 620.675L5298.32 618.929C5294.22 617.959 5291.21 616.455 5289.29 614.417C5287.39 612.361 5286.44 609.79 5286.44 606.704C5286.44 604.182 5287.15 601.95 5288.57 600.01C5290 598.07 5291.95 596.546 5294.42 595.44C5296.9 594.334 5299.71 593.781 5302.86 593.781C5307.28 593.781 5310.75 594.752 5313.28 596.692C5315.82 598.632 5317.62 601.194 5318.69 604.376ZM5329.85 639.07V594.364H5336.71V639.07H5329.85ZM5333.34 586.912C5332 586.912 5330.84 586.456 5329.87 585.545C5328.92 584.633 5328.45 583.536 5328.45 582.256C5328.45 580.975 5328.92 579.879 5329.87 578.967C5330.84 578.055 5332 577.599 5333.34 577.599C5334.68 577.599 5335.82 578.055 5336.77 578.967C5337.74 579.879 5338.23 580.975 5338.23 582.256C5338.23 583.536 5337.74 584.633 5336.77 585.545C5335.82 586.456 5334.68 586.912 5333.34 586.912ZM5368.74 594.364V600.185H5345.57V594.364H5368.74ZM5352.32 583.653H5359.19V626.263C5359.19 628.204 5359.47 629.659 5360.04 630.629C5360.62 631.58 5361.35 632.22 5362.25 632.55C5363.16 632.861 5364.12 633.016 5365.13 633.016C5365.89 633.016 5366.51 632.977 5366.99 632.899C5367.48 632.802 5367.86 632.725 5368.16 632.667L5369.55 638.837C5369.09 639.012 5368.44 639.186 5367.6 639.361C5366.77 639.555 5365.71 639.652 5364.43 639.652C5362.49 639.652 5360.59 639.235 5358.73 638.4C5356.88 637.566 5355.35 636.295 5354.13 634.588C5352.92 632.88 5352.32 630.726 5352.32 628.126V583.653ZM5379.07 639.07V594.364H5385.94V639.07H5379.07ZM5382.56 586.912C5381.22 586.912 5380.07 586.456 5379.1 585.545C5378.15 584.633 5377.67 583.536 5377.67 582.256C5377.67 580.975 5378.15 579.879 5379.1 578.967C5380.07 578.055 5381.22 577.599 5382.56 577.599C5383.9 577.599 5385.05 578.055 5386 578.967C5386.97 579.879 5387.45 580.975 5387.45 582.256C5387.45 583.536 5386.97 584.633 5386 585.545C5385.05 586.456 5383.9 586.912 5382.56 586.912ZM5416.68 640.001C5412.65 640.001 5409.1 639.041 5406.06 637.12C5403.03 635.199 5400.66 632.511 5398.96 629.057C5397.27 625.604 5396.42 621.568 5396.42 616.95C5396.42 612.293 5397.27 608.228 5398.96 604.754C5400.66 601.281 5403.03 598.584 5406.06 596.663C5409.1 594.742 5412.65 593.781 5416.68 593.781C5420.72 593.781 5424.25 594.742 5427.28 596.663C5430.32 598.584 5432.69 601.281 5434.38 604.754C5436.09 608.228 5436.94 612.293 5436.94 616.95C5436.94 621.568 5436.09 625.604 5434.38 629.057C5432.69 632.511 5430.32 635.199 5427.28 637.12C5424.25 639.041 5420.72 640.001 5416.68 640.001ZM5416.68 633.831C5419.75 633.831 5422.27 633.045 5424.25 631.473C5426.23 629.902 5427.69 627.835 5428.64 625.274C5429.6 622.712 5430.07 619.938 5430.07 616.95C5430.07 613.961 5429.6 611.177 5428.64 608.596C5427.69 606.015 5426.23 603.93 5424.25 602.338C5422.27 600.747 5419.75 599.952 5416.68 599.952C5413.62 599.952 5411.09 600.747 5409.11 602.338C5407.14 603.93 5405.67 606.015 5404.72 608.596C5403.77 611.177 5403.29 613.961 5403.29 616.95C5403.29 619.938 5403.77 622.712 5404.72 625.274C5405.67 627.835 5407.14 629.902 5409.11 631.473C5411.09 633.045 5413.62 633.831 5416.68 633.831ZM5454.29 612.176V639.07H5447.42V594.364H5454.06V601.349H5454.64C5455.69 599.079 5457.28 597.255 5459.42 595.877C5461.55 594.48 5464.31 593.781 5467.68 593.781C5470.71 593.781 5473.36 594.402 5475.63 595.644C5477.9 596.867 5479.66 598.729 5480.93 601.232C5482.19 603.716 5482.82 606.86 5482.82 610.663V639.07H5475.95V611.128C5475.95 607.616 5475.04 604.88 5473.21 602.921C5471.39 600.941 5468.89 599.952 5465.7 599.952C5463.51 599.952 5461.55 600.427 5459.82 601.378C5458.12 602.329 5456.77 603.716 5455.78 605.54C5454.79 607.364 5454.29 609.576 5454.29 612.176Z" fill="black"/>
<path d="M8.42124 406.662V337.118H31.9192C37.3523 337.118 41.8119 338.047 45.2981 339.903C48.7843 341.737 51.365 344.261 53.0402 347.475C54.7154 350.69 55.553 354.346 55.553 358.443C55.553 362.541 54.7154 366.174 53.0402 369.343C51.365 372.513 48.7956 375.003 45.3321 376.814C41.8685 378.602 37.4428 379.496 32.055 379.496H13.0393V371.89H31.7834C35.496 371.89 38.4842 371.347 40.7479 370.26C43.0343 369.174 44.6869 367.634 45.7056 365.642C46.7469 363.627 47.2676 361.228 47.2676 358.443C47.2676 355.659 46.7469 353.225 45.7056 351.143C44.6643 349.06 43.0004 347.453 40.714 346.321C38.4276 345.166 35.4054 344.589 31.6476 344.589H16.8425V406.662H8.42124ZM41.1554 375.422L58.2695 406.662H48.49L31.6476 375.422H41.1554ZM89.8067 407.748C84.7812 407.748 80.446 406.639 76.8013 404.42C73.1793 402.179 70.3836 399.055 68.4141 395.048C66.4672 391.019 65.4938 386.333 65.4938 380.99C65.4938 375.648 66.4672 370.939 68.4141 366.864C70.3836 362.767 73.1227 359.575 76.6316 357.289C80.1631 354.98 84.2831 353.825 88.9918 353.825C91.7083 353.825 94.3909 354.278 97.0395 355.183C99.6881 356.089 102.099 357.56 104.272 359.598C106.445 361.613 108.177 364.284 109.468 367.612C110.758 370.939 111.403 375.037 111.403 379.904V383.299H71.1985V376.372H103.254C103.254 373.429 102.665 370.803 101.488 368.494C100.333 366.185 98.6807 364.363 96.5301 363.027C94.4022 361.692 91.8894 361.024 88.9918 361.024C85.7998 361.024 83.038 361.816 80.7064 363.401C78.3973 364.963 76.6202 367 75.3752 369.513C74.1301 372.026 73.5076 374.72 73.5076 377.595V382.213C73.5076 386.152 74.1867 389.491 75.545 392.23C76.9259 394.947 78.8387 397.018 81.2836 398.444C83.7285 399.848 86.5695 400.549 89.8067 400.549C91.912 400.549 93.8136 400.255 95.5114 399.667C97.2319 399.055 98.7147 398.15 99.9598 396.95C101.205 395.728 102.167 394.211 102.846 392.4L110.588 394.573C109.773 397.199 108.404 399.508 106.479 401.5C104.555 403.47 102.178 405.009 99.3485 406.118C96.5188 407.205 93.3382 407.748 89.8067 407.748ZM146.277 354.504V361.296H119.247V354.504H146.277ZM127.125 342.008H135.139V391.721C135.139 393.984 135.467 395.682 136.124 396.814C136.803 397.923 137.663 398.671 138.704 399.055C139.768 399.418 140.889 399.599 142.066 399.599C142.949 399.599 143.673 399.553 144.239 399.463C144.805 399.35 145.258 399.259 145.597 399.191L147.227 406.39C146.684 406.594 145.926 406.797 144.952 407.001C143.979 407.228 142.745 407.341 141.251 407.341C138.987 407.341 136.769 406.854 134.595 405.881C132.445 404.907 130.657 403.424 129.23 401.432C127.827 399.44 127.125 396.927 127.125 393.894V342.008ZM158.331 406.662V354.504H166.073V362.382H166.617C167.567 359.802 169.288 357.708 171.778 356.1C174.268 354.493 177.075 353.689 180.199 353.689C180.788 353.689 181.524 353.701 182.406 353.723C183.289 353.746 183.957 353.78 184.41 353.825V361.975C184.138 361.907 183.516 361.805 182.542 361.669C181.591 361.511 180.584 361.431 179.52 361.431C176.985 361.431 174.721 361.963 172.729 363.027C170.759 364.069 169.197 365.518 168.043 367.374C166.911 369.207 166.345 371.301 166.345 373.656V406.662H158.331ZM193.909 406.662V354.504H201.923V406.662H193.909ZM197.984 345.811C196.422 345.811 195.075 345.279 193.943 344.215C192.834 343.151 192.279 341.872 192.279 340.378C192.279 338.884 192.834 337.605 193.943 336.541C195.075 335.477 196.422 334.945 197.984 334.945C199.546 334.945 200.882 335.477 201.991 336.541C203.123 337.605 203.689 338.884 203.689 340.378C203.689 341.872 203.123 343.151 201.991 344.215C200.882 345.279 199.546 345.811 197.984 345.811ZM238.469 407.748C233.443 407.748 229.108 406.639 225.463 404.42C221.841 402.179 219.046 399.055 217.076 395.048C215.129 391.019 214.156 386.333 214.156 380.99C214.156 375.648 215.129 370.939 217.076 366.864C219.046 362.767 221.785 359.575 225.294 357.289C228.825 354.98 232.945 353.825 237.654 353.825C240.37 353.825 243.053 354.278 245.701 355.183C248.35 356.089 250.761 357.56 252.934 359.598C255.107 361.613 256.839 364.284 258.13 367.612C259.42 370.939 260.065 375.037 260.065 379.904V383.299H219.861V376.372H251.916C251.916 373.429 251.327 370.803 250.15 368.494C248.995 366.185 247.343 364.363 245.192 363.027C243.064 361.692 240.551 361.024 237.654 361.024C234.462 361.024 231.7 361.816 229.368 363.401C227.059 364.963 225.282 367 224.037 369.513C222.792 372.026 222.17 374.72 222.17 377.595V382.213C222.17 386.152 222.849 389.491 224.207 392.23C225.588 394.947 227.501 397.018 229.946 398.444C232.391 399.848 235.232 400.549 238.469 400.549C240.574 400.549 242.476 400.255 244.173 399.667C245.894 399.055 247.377 398.15 248.622 396.95C249.867 395.728 250.829 394.211 251.508 392.4L259.25 394.573C258.435 397.199 257.066 399.508 255.141 401.5C253.217 403.47 250.84 405.009 248.011 406.118C245.181 407.205 242 407.748 238.469 407.748ZM313.318 354.504L294.03 406.662H285.881L266.593 354.504H275.286L289.684 396.067H290.227L304.625 354.504H313.318ZM343.895 407.748C338.87 407.748 334.535 406.639 330.89 404.42C327.268 402.179 324.472 399.055 322.503 395.048C320.556 391.019 319.583 386.333 319.583 380.99C319.583 375.648 320.556 370.939 322.503 366.864C324.472 362.767 327.211 359.575 330.72 357.289C334.252 354.98 338.372 353.825 343.081 353.825C345.797 353.825 348.48 354.278 351.128 355.183C353.777 356.089 356.188 357.56 358.361 359.598C360.534 361.613 362.266 364.284 363.556 367.612C364.847 370.939 365.492 375.037 365.492 379.904V383.299H325.287V376.372H357.342C357.342 373.429 356.754 370.803 355.577 368.494C354.422 366.185 352.769 364.363 350.619 363.027C348.491 361.692 345.978 361.024 343.081 361.024C339.889 361.024 337.127 361.816 334.795 363.401C332.486 364.963 330.709 367 329.464 369.513C328.219 372.026 327.596 374.72 327.596 377.595V382.213C327.596 386.152 328.275 389.491 329.634 392.23C331.015 394.947 332.928 397.018 335.372 398.444C337.817 399.848 340.658 400.549 343.895 400.549C346.001 400.549 347.902 400.255 349.6 399.667C351.321 399.055 352.803 398.15 354.049 396.95C355.294 395.728 356.256 394.211 356.935 392.4L364.677 394.573C363.862 397.199 362.492 399.508 360.568 401.5C358.644 403.47 356.267 405.009 353.437 406.118C350.608 407.205 347.427 407.748 343.895 407.748ZM419.924 407.884C416.619 407.884 413.62 407.262 410.926 406.016C408.232 404.749 406.093 402.926 404.508 400.549C402.923 398.15 402.131 395.252 402.131 391.857C402.131 388.868 402.72 386.446 403.897 384.59C405.074 382.711 406.647 381.239 408.617 380.175C410.586 379.111 412.76 378.319 415.136 377.799C417.536 377.255 419.947 376.825 422.369 376.508C425.539 376.101 428.108 375.795 430.077 375.591C432.069 375.365 433.518 374.991 434.424 374.471C435.352 373.95 435.816 373.045 435.816 371.754V371.483C435.816 368.132 434.899 365.529 433.066 363.673C431.255 361.816 428.504 360.888 424.814 360.888C420.988 360.888 417.989 361.726 415.816 363.401C413.642 365.076 412.114 366.864 411.231 368.766L403.625 366.05C404.983 362.88 406.794 360.413 409.058 358.647C411.345 356.859 413.835 355.614 416.529 354.912C419.245 354.187 421.916 353.825 424.542 353.825C426.218 353.825 428.142 354.029 430.315 354.436C432.511 354.821 434.628 355.625 436.665 356.847C438.725 358.07 440.434 359.915 441.792 362.382C443.151 364.85 443.83 368.155 443.83 372.298V406.662H435.816V399.599H435.409C434.865 400.731 433.96 401.942 432.692 403.232C431.424 404.522 429.738 405.62 427.632 406.526C425.527 407.431 422.958 407.884 419.924 407.884ZM421.147 400.685C424.316 400.685 426.987 400.063 429.161 398.818C431.356 397.573 433.009 395.965 434.118 393.996C435.25 392.026 435.816 389.955 435.816 387.782V380.447C435.476 380.855 434.729 381.228 433.575 381.568C432.443 381.885 431.13 382.168 429.636 382.417C428.164 382.643 426.727 382.847 425.323 383.028C423.943 383.186 422.822 383.322 421.962 383.435C419.879 383.707 417.932 384.148 416.121 384.76C414.333 385.348 412.884 386.242 411.775 387.442C410.688 388.619 410.145 390.227 410.145 392.264C410.145 395.048 411.175 397.154 413.235 398.58C415.318 399.983 417.955 400.685 421.147 400.685ZM466.47 337.118V406.662H458.457V337.118H466.47ZM489.162 337.118V406.662H481.148V337.118H489.162ZM573.383 354.504L554.095 406.662H545.946L526.658 354.504H535.351L549.749 396.067H550.292L564.69 354.504H573.383ZM597.721 407.884C594.416 407.884 591.416 407.262 588.723 406.016C586.029 404.749 583.889 402.926 582.305 400.549C580.72 398.15 579.928 395.252 579.928 391.857C579.928 388.868 580.516 386.446 581.694 384.59C582.871 382.711 584.444 381.239 586.414 380.175C588.383 379.111 590.556 378.319 592.933 377.799C595.333 377.255 597.744 376.825 600.166 376.508C603.335 376.101 605.905 375.795 607.874 375.591C609.866 375.365 611.315 374.991 612.221 374.471C613.149 373.95 613.613 373.045 613.613 371.754V371.483C613.613 368.132 612.696 365.529 610.862 363.673C609.051 361.816 606.301 360.888 602.611 360.888C598.785 360.888 595.786 361.726 593.612 363.401C591.439 365.076 589.911 366.864 589.028 368.766L581.422 366.05C582.78 362.88 584.591 360.413 586.855 358.647C589.141 356.859 591.632 355.614 594.325 354.912C597.042 354.187 599.713 353.825 602.339 353.825C604.014 353.825 605.939 354.029 608.112 354.436C610.308 354.821 612.424 355.625 614.462 356.847C616.522 358.07 618.231 359.915 619.589 362.382C620.947 364.85 621.627 368.155 621.627 372.298V406.662H613.613V399.599H613.205C612.662 400.731 611.756 401.942 610.489 403.232C609.221 404.522 607.535 405.62 605.429 406.526C603.324 407.431 600.755 407.884 597.721 407.884ZM598.944 400.685C602.113 400.685 604.784 400.063 606.957 398.818C609.153 397.573 610.806 395.965 611.915 393.996C613.047 392.026 613.613 389.955 613.613 387.782V380.447C613.273 380.855 612.526 381.228 611.372 381.568C610.24 381.885 608.927 382.168 607.433 382.417C605.961 382.643 604.524 382.847 603.12 383.028C601.739 383.186 600.619 383.322 599.758 383.435C597.676 383.707 595.729 384.148 593.918 384.76C592.13 385.348 590.681 386.242 589.572 387.442C588.485 388.619 587.942 390.227 587.942 392.264C587.942 395.048 588.972 397.154 591.032 398.58C593.114 399.983 595.752 400.685 598.944 400.685ZM636.253 406.662V354.504H643.995V362.382H644.539C645.49 359.802 647.21 357.708 649.7 356.1C652.19 354.493 654.997 353.689 658.121 353.689C658.71 353.689 659.446 353.701 660.329 353.723C661.211 353.746 661.879 353.78 662.332 353.825V361.975C662.06 361.907 661.438 361.805 660.464 361.669C659.514 361.511 658.506 361.431 657.442 361.431C654.907 361.431 652.643 361.963 650.651 363.027C648.682 364.069 647.12 365.518 645.965 367.374C644.833 369.207 644.267 371.301 644.267 373.656V406.662H636.253ZM671.831 406.662V354.504H679.845V406.662H671.831ZM675.906 345.811C674.344 345.811 672.997 345.279 671.865 344.215C670.756 343.151 670.201 341.872 670.201 340.378C670.201 338.884 670.756 337.605 671.865 336.541C672.997 335.477 674.344 334.945 675.906 334.945C677.468 334.945 678.804 335.477 679.913 336.541C681.045 337.605 681.611 338.884 681.611 340.378C681.611 341.872 681.045 343.151 679.913 344.215C678.804 345.279 677.468 345.811 675.906 345.811ZM709.871 407.884C706.566 407.884 703.567 407.262 700.873 406.016C698.179 404.749 696.04 402.926 694.455 400.549C692.87 398.15 692.078 395.252 692.078 391.857C692.078 388.868 692.667 386.446 693.844 384.59C695.021 382.711 696.594 381.239 698.564 380.175C700.533 379.111 702.706 378.319 705.083 377.799C707.483 377.255 709.894 376.825 712.316 376.508C715.485 376.101 718.055 375.795 720.024 375.591C722.016 375.365 723.465 374.991 724.371 374.471C725.299 373.95 725.763 373.045 725.763 371.754V371.483C725.763 368.132 724.846 365.529 723.013 363.673C721.201 361.816 718.451 360.888 714.761 360.888C710.935 360.888 707.936 361.726 705.763 363.401C703.589 365.076 702.061 366.864 701.178 368.766L693.572 366.05C694.93 362.88 696.741 360.413 699.005 358.647C701.292 356.859 703.782 355.614 706.476 354.912C709.192 354.187 711.863 353.825 714.489 353.825C716.165 353.825 718.089 354.029 720.262 354.436C722.458 354.821 724.575 355.625 726.612 356.847C728.672 358.07 730.381 359.915 731.739 362.382C733.098 364.85 733.777 368.155 733.777 372.298V406.662H725.763V399.599H725.356C724.812 400.731 723.907 401.942 722.639 403.232C721.371 404.522 719.685 405.62 717.579 406.526C715.474 407.431 712.905 407.884 709.871 407.884ZM711.094 400.685C714.263 400.685 716.934 400.063 719.108 398.818C721.303 397.573 722.956 395.965 724.065 393.996C725.197 392.026 725.763 389.955 725.763 387.782V380.447C725.423 380.855 724.676 381.228 723.522 381.568C722.39 381.885 721.077 382.168 719.583 382.417C718.111 382.643 716.674 382.847 715.27 383.028C713.89 383.186 712.769 383.322 711.909 383.435C709.826 383.707 707.879 384.148 706.068 384.76C704.28 385.348 702.831 386.242 701.722 387.442C700.635 388.619 700.092 390.227 700.092 392.264C700.092 395.048 701.122 397.154 703.182 398.58C705.265 399.983 707.902 400.685 711.094 400.685ZM756.417 375.286V406.662H748.404V354.504H756.146V362.654H756.825C758.047 360.005 759.904 357.877 762.394 356.27C764.884 354.64 768.098 353.825 772.037 353.825C775.569 353.825 778.659 354.55 781.307 355.998C783.956 357.425 786.016 359.598 787.488 362.518C788.959 365.416 789.695 369.083 789.695 373.52V406.662H781.681V374.063C781.681 369.966 780.617 366.774 778.489 364.488C776.361 362.178 773.441 361.024 769.728 361.024C767.17 361.024 764.884 361.579 762.869 362.688C760.877 363.797 759.304 365.416 758.149 367.544C756.995 369.672 756.417 372.252 756.417 375.286ZM827.022 354.504V361.296H799.992V354.504H827.022ZM807.87 342.008H815.884V391.721C815.884 393.984 816.212 395.682 816.869 396.814C817.548 397.923 818.408 398.671 819.449 399.055C820.513 399.418 821.634 399.599 822.811 399.599C823.694 399.599 824.418 399.553 824.984 399.463C825.55 399.35 826.003 399.259 826.342 399.191L827.972 406.39C827.429 406.594 826.671 406.797 825.697 407.001C824.724 407.228 823.49 407.341 821.996 407.341C819.732 407.341 817.514 406.854 815.34 405.881C813.19 404.907 811.402 403.424 809.975 401.432C808.572 399.44 807.87 396.927 807.87 393.894V342.008ZM875.087 366.185L867.888 368.223C867.436 367.023 866.768 365.857 865.885 364.725C865.025 363.571 863.848 362.62 862.353 361.873C860.859 361.126 858.946 360.752 856.615 360.752C853.423 360.752 850.763 361.488 848.635 362.959C846.53 364.408 845.477 366.253 845.477 368.494C845.477 370.487 846.201 372.06 847.65 373.214C849.099 374.369 851.363 375.331 854.442 376.101L862.184 378.002C866.847 379.134 870.322 380.866 872.608 383.198C874.895 385.507 876.038 388.484 876.038 392.128C876.038 395.116 875.178 397.788 873.457 400.142C871.759 402.496 869.382 404.353 866.326 405.711C863.27 407.069 859.716 407.748 855.664 407.748C850.344 407.748 845.941 406.594 842.455 404.285C838.969 401.976 836.761 398.603 835.833 394.166L843.44 392.264C844.164 395.071 845.534 397.176 847.548 398.58C849.586 399.983 852.246 400.685 855.528 400.685C859.263 400.685 862.229 399.893 864.425 398.308C866.643 396.701 867.753 394.777 867.753 392.536C867.753 390.725 867.119 389.208 865.851 387.985C864.583 386.74 862.636 385.812 860.01 385.201L851.318 383.164C846.541 382.032 843.032 380.277 840.791 377.9C838.572 375.501 837.463 372.501 837.463 368.902C837.463 365.959 838.29 363.356 839.942 361.092C841.617 358.828 843.892 357.051 846.767 355.761C849.665 354.47 852.947 353.825 856.615 353.825C861.776 353.825 865.828 354.957 868.771 357.221C871.737 359.485 873.842 362.473 875.087 366.185ZM926.812 406.662L910.92 354.504H919.341L930.615 394.437H931.158L942.296 354.504H950.853L961.855 394.301H962.398L973.672 354.504H982.093L966.201 406.662H958.323L946.914 366.593H946.099L934.689 406.662H926.812ZM992.687 406.662V354.504H1000.7V406.662H992.687ZM996.762 345.811C995.2 345.811 993.853 345.279 992.721 344.215C991.612 343.151 991.057 341.872 991.057 340.378C991.057 338.884 991.612 337.605 992.721 336.541C993.853 335.477 995.2 334.945 996.762 334.945C998.324 334.945 999.66 335.477 1000.77 336.541C1001.9 337.605 1002.47 338.884 1002.47 340.378C1002.47 341.872 1001.9 343.151 1000.77 344.215C999.66 345.279 998.324 345.811 996.762 345.811ZM1038.06 354.504V361.296H1011.03V354.504H1038.06ZM1018.91 342.008H1026.92V391.721C1026.92 393.984 1027.25 395.682 1027.91 396.814C1028.59 397.923 1029.45 398.671 1030.49 399.055C1031.55 399.418 1032.67 399.599 1033.85 399.599C1034.73 399.599 1035.46 399.553 1036.02 399.463C1036.59 399.35 1037.04 399.259 1037.38 399.191L1039.01 406.39C1038.47 406.594 1037.71 406.797 1036.74 407.001C1035.76 407.228 1034.53 407.341 1033.04 407.341C1030.77 407.341 1028.55 406.854 1026.38 405.881C1024.23 404.907 1022.44 403.424 1021.02 401.432C1019.61 399.44 1018.91 396.927 1018.91 393.894V342.008ZM1059.25 375.286V406.662H1051.24V337.118H1059.25V362.654H1059.93C1061.15 359.96 1062.99 357.821 1065.43 356.236C1067.9 354.629 1071.18 353.825 1075.28 353.825C1078.83 353.825 1081.95 354.538 1084.62 355.964C1087.29 357.368 1089.36 359.53 1090.83 362.45C1092.32 365.348 1093.07 369.038 1093.07 373.52V406.662H1085.06V374.063C1085.06 369.921 1083.98 366.717 1081.83 364.454C1079.7 362.167 1076.75 361.024 1072.97 361.024C1070.34 361.024 1067.99 361.579 1065.91 362.688C1063.85 363.797 1062.22 365.416 1061.02 367.544C1059.84 369.672 1059.25 372.252 1059.25 375.286ZM1107.73 406.662V354.504H1115.75V406.662H1107.73ZM1111.81 345.811C1110.25 345.811 1108.9 345.279 1107.77 344.215C1106.66 343.151 1106.1 341.872 1106.1 340.378C1106.1 338.884 1106.66 337.605 1107.77 336.541C1108.9 335.477 1110.25 334.945 1111.81 334.945C1113.37 334.945 1114.7 335.477 1115.81 336.541C1116.95 337.605 1117.51 338.884 1117.51 340.378C1117.51 341.872 1116.95 343.151 1115.81 344.215C1114.7 345.279 1113.37 345.811 1111.81 345.811ZM1138.44 375.286V406.662H1130.42V354.504H1138.17V362.654H1138.85C1140.07 360.005 1141.92 357.877 1144.41 356.27C1146.9 354.64 1150.12 353.825 1154.06 353.825C1157.59 353.825 1160.68 354.55 1163.33 355.998C1165.98 357.425 1168.04 359.598 1169.51 362.518C1170.98 365.416 1171.72 369.083 1171.72 373.52V406.662H1163.7V374.063C1163.7 369.966 1162.64 366.774 1160.51 364.488C1158.38 362.178 1155.46 361.024 1151.75 361.024C1149.19 361.024 1146.9 361.579 1144.89 362.688C1142.9 363.797 1141.32 365.416 1140.17 367.544C1139.01 369.672 1138.44 372.252 1138.44 375.286ZM1234.44 407.748C1229.73 407.748 1225.6 406.628 1222.05 404.387C1218.52 402.145 1215.75 399.01 1213.76 394.981C1211.79 390.951 1210.81 386.242 1210.81 380.855C1210.81 375.422 1211.79 370.679 1213.76 366.627C1215.75 362.575 1218.52 359.428 1222.05 357.187C1225.6 354.946 1229.73 353.825 1234.44 353.825C1239.15 353.825 1243.27 354.946 1246.8 357.187C1250.36 359.428 1253.12 362.575 1255.09 366.627C1257.08 370.679 1258.08 375.422 1258.08 380.855C1258.08 386.242 1257.08 390.951 1255.09 394.981C1253.12 399.01 1250.36 402.145 1246.8 404.387C1243.27 406.628 1239.15 407.748 1234.44 407.748ZM1234.44 400.549C1238.02 400.549 1240.96 399.633 1243.27 397.799C1245.58 395.965 1247.29 393.554 1248.4 390.566C1249.51 387.578 1250.06 384.341 1250.06 380.855C1250.06 377.368 1249.51 374.12 1248.4 371.109C1247.29 368.098 1245.58 365.665 1243.27 363.808C1240.96 361.952 1238.02 361.024 1234.44 361.024C1230.86 361.024 1227.92 361.952 1225.61 363.808C1223.3 365.665 1221.59 368.098 1220.49 371.109C1219.38 374.12 1218.82 377.368 1218.82 380.855C1218.82 384.341 1219.38 387.578 1220.49 390.566C1221.59 393.554 1223.3 395.965 1225.61 397.799C1227.92 399.633 1230.86 400.549 1234.44 400.549ZM1270.31 406.662V354.504H1278.05V362.382H1278.59C1279.54 359.802 1281.26 357.708 1283.75 356.1C1286.24 354.493 1289.05 353.689 1292.18 353.689C1292.76 353.689 1293.5 353.701 1294.38 353.723C1295.27 353.746 1295.93 353.78 1296.39 353.825V361.975C1296.12 361.907 1295.49 361.805 1294.52 361.669C1293.57 361.511 1292.56 361.431 1291.5 361.431C1288.96 361.431 1286.7 361.963 1284.71 363.027C1282.74 364.069 1281.17 365.518 1280.02 367.374C1278.89 369.207 1278.32 371.301 1278.32 373.656V406.662H1270.31ZM28.5235 523.748C23.8149 523.748 19.6835 522.628 16.1294 520.387C12.5979 518.145 9.8361 515.01 7.84398 510.981C5.87449 506.951 4.88975 502.242 4.88975 496.855C4.88975 491.422 5.87449 486.679 7.84398 482.627C9.8361 478.575 12.5979 475.428 16.1294 473.187C19.6835 470.946 23.8149 469.825 28.5235 469.825C33.2322 469.825 37.3523 470.946 40.8838 473.187C44.4379 475.428 47.1997 478.575 49.1692 482.627C51.1613 486.679 52.1573 491.422 52.1573 496.855C52.1573 502.242 51.1613 506.951 49.1692 510.981C47.1997 515.01 44.4379 518.145 40.8838 520.387C37.3523 522.628 33.2322 523.748 28.5235 523.748ZM28.5235 516.549C32.1003 516.549 35.0432 515.633 37.3523 513.799C39.6613 511.965 41.3705 509.554 42.4797 506.566C43.589 503.578 44.1436 500.341 44.1436 496.855C44.1436 493.368 43.589 490.12 42.4797 487.109C41.3705 484.098 39.6613 481.665 37.3523 479.808C35.0432 477.952 32.1003 477.024 28.5235 477.024C24.9468 477.024 22.0039 477.952 19.6948 479.808C17.3858 481.665 15.6766 484.098 14.5674 487.109C13.4581 490.12 12.9035 493.368 12.9035 496.855C12.9035 500.341 13.4581 503.578 14.5674 506.566C15.6766 509.554 17.3858 511.965 19.6948 513.799C22.0039 515.633 24.9468 516.549 28.5235 516.549ZM105.172 470.504L85.8847 522.662H77.7352L58.4478 470.504H67.1407L81.5383 512.067H82.0816L96.4792 470.504H105.172ZM135.75 523.748C130.724 523.748 126.389 522.639 122.745 520.42C119.123 518.179 116.327 515.055 114.357 511.048C112.411 507.019 111.437 502.333 111.437 496.99C111.437 491.648 112.411 486.939 114.357 482.864C116.327 478.767 119.066 475.575 122.575 473.289C126.106 470.98 130.226 469.825 134.935 469.825C137.652 469.825 140.334 470.278 142.983 471.183C145.631 472.089 148.042 473.56 150.216 475.598C152.389 477.613 154.121 480.284 155.411 483.612C156.701 486.939 157.346 491.037 157.346 495.904V499.299H117.142V492.372H149.197C149.197 489.429 148.608 486.803 147.431 484.494C146.277 482.185 144.624 480.363 142.473 479.027C140.345 477.692 137.833 477.024 134.935 477.024C131.743 477.024 128.981 477.816 126.65 479.401C124.341 480.963 122.564 483 121.318 485.513C120.073 488.026 119.451 490.72 119.451 493.595V498.213C119.451 502.152 120.13 505.491 121.488 508.23C122.869 510.947 124.782 513.018 127.227 514.444C129.672 515.848 132.513 516.549 135.75 516.549C137.855 516.549 139.757 516.255 141.455 515.667C143.175 515.055 144.658 514.15 145.903 512.95C147.148 511.728 148.11 510.211 148.789 508.4L156.531 510.573C155.716 513.199 154.347 515.508 152.423 517.5C150.498 519.47 148.122 521.009 145.292 522.118C142.462 523.205 139.282 523.748 135.75 523.748ZM169.537 522.662V470.504H177.279V478.382H177.822C178.773 475.802 180.494 473.708 182.984 472.1C185.474 470.493 188.281 469.689 191.405 469.689C191.993 469.689 192.729 469.701 193.612 469.723C194.495 469.746 195.163 469.78 195.616 469.825V477.975C195.344 477.907 194.721 477.805 193.748 477.669C192.797 477.511 191.79 477.431 190.726 477.431C188.19 477.431 185.927 477.963 183.934 479.027C181.965 480.069 180.403 481.518 179.248 483.374C178.117 485.207 177.551 487.301 177.551 489.656V522.662H169.537ZM213.129 453.118V522.662H205.115V453.118H213.129ZM243.155 523.884C239.85 523.884 236.85 523.262 234.156 522.016C231.462 520.749 229.323 518.926 227.738 516.549C226.154 514.15 225.361 511.252 225.361 507.857C225.361 504.868 225.95 502.446 227.127 500.59C228.304 498.711 229.878 497.239 231.847 496.175C233.817 495.111 235.99 494.319 238.367 493.799C240.766 493.255 243.177 492.825 245.6 492.508C248.769 492.101 251.338 491.795 253.308 491.591C255.3 491.365 256.749 490.991 257.654 490.471C258.582 489.95 259.046 489.045 259.046 487.754V487.483C259.046 484.132 258.13 481.529 256.296 479.673C254.485 477.816 251.734 476.888 248.045 476.888C244.219 476.888 241.219 477.726 239.046 479.401C236.873 481.076 235.345 482.864 234.462 484.766L226.856 482.05C228.214 478.88 230.025 476.413 232.289 474.647C234.575 472.859 237.065 471.614 239.759 470.912C242.476 470.187 245.147 469.825 247.773 469.825C249.448 469.825 251.372 470.029 253.545 470.436C255.741 470.821 257.858 471.625 259.895 472.847C261.955 474.07 263.665 475.915 265.023 478.382C266.381 480.85 267.06 484.155 267.06 488.298V522.662H259.046V515.599H258.639C258.096 516.731 257.19 517.942 255.922 519.232C254.655 520.522 252.968 521.62 250.863 522.526C248.758 523.431 246.188 523.884 243.155 523.884ZM244.377 516.685C247.546 516.685 250.218 516.063 252.391 514.818C254.587 513.573 256.239 511.965 257.349 509.996C258.48 508.026 259.046 505.955 259.046 503.782V496.447C258.707 496.855 257.96 497.228 256.805 497.568C255.673 497.885 254.36 498.168 252.866 498.417C251.395 498.643 249.957 498.847 248.554 499.028C247.173 499.186 246.052 499.322 245.192 499.435C243.109 499.707 241.163 500.148 239.352 500.76C237.563 501.348 236.114 502.242 235.005 503.442C233.919 504.619 233.375 506.227 233.375 508.264C233.375 511.048 234.405 513.154 236.465 514.58C238.548 515.983 241.185 516.685 244.377 516.685ZM281.687 542.221V470.504H289.429V478.79H290.38C290.968 477.884 291.783 476.73 292.825 475.326C293.889 473.9 295.405 472.632 297.375 471.523C299.367 470.391 302.061 469.825 305.457 469.825C309.848 469.825 313.719 470.923 317.07 473.119C320.42 475.315 323.035 478.427 324.914 482.457C326.793 486.487 327.732 491.24 327.732 496.719C327.732 502.242 326.793 507.03 324.914 511.082C323.035 515.112 320.431 518.236 317.104 520.454C313.776 522.65 309.939 523.748 305.592 523.748C302.242 523.748 299.56 523.194 297.545 522.084C295.53 520.952 293.979 519.673 292.893 518.247C291.806 516.798 290.968 515.599 290.38 514.648H289.701V542.221H281.687ZM289.565 496.583C289.565 500.522 290.142 503.997 291.297 507.008C292.451 509.996 294.138 512.339 296.356 514.037C298.575 515.712 301.291 516.549 304.506 516.549C307.856 516.549 310.652 515.667 312.893 513.901C315.157 512.112 316.855 509.713 317.987 506.702C319.141 503.669 319.718 500.296 319.718 496.583C319.718 492.916 319.152 489.611 318.021 486.668C316.911 483.702 315.225 481.359 312.961 479.639C310.72 477.895 307.902 477.024 304.506 477.024C301.246 477.024 298.507 477.85 296.288 479.503C294.07 481.133 292.395 483.419 291.263 486.362C290.131 489.282 289.565 492.689 289.565 496.583ZM339.957 542.221V470.504H347.699V478.79H348.649C349.238 477.884 350.053 476.73 351.094 475.326C352.158 473.9 353.675 472.632 355.644 471.523C357.637 470.391 360.331 469.825 363.726 469.825C368.118 469.825 371.989 470.923 375.339 473.119C378.69 475.315 381.304 478.427 383.183 482.457C385.062 486.487 386.002 491.24 386.002 496.719C386.002 502.242 385.062 507.03 383.183 511.082C381.304 515.112 378.701 518.236 375.373 520.454C372.046 522.65 368.208 523.748 363.862 523.748C360.512 523.748 357.829 523.194 355.814 522.084C353.8 520.952 352.249 519.673 351.162 518.247C350.076 516.798 349.238 515.599 348.649 514.648H347.97V542.221H339.957ZM347.834 496.583C347.834 500.522 348.412 503.997 349.566 507.008C350.721 509.996 352.407 512.339 354.626 514.037C356.844 515.712 359.561 516.549 362.775 516.549C366.126 516.549 368.922 515.667 371.163 513.901C373.426 512.112 375.124 509.713 376.256 506.702C377.411 503.669 377.988 500.296 377.988 496.583C377.988 492.916 377.422 489.611 376.29 486.668C375.181 483.702 373.494 481.359 371.231 479.639C368.989 477.895 366.171 477.024 362.775 477.024C359.516 477.024 356.776 477.85 354.558 479.503C352.339 481.133 350.664 483.419 349.532 486.362C348.4 489.282 347.834 492.689 347.834 496.583ZM398.226 522.662V470.504H406.24V522.662H398.226ZM402.301 461.811C400.739 461.811 399.392 461.279 398.26 460.215C397.151 459.151 396.596 457.872 396.596 456.378C396.596 454.884 397.151 453.605 398.26 452.541C399.392 451.477 400.739 450.945 402.301 450.945C403.863 450.945 405.198 451.477 406.308 452.541C407.44 453.605 408.006 454.884 408.006 456.378C408.006 457.872 407.44 459.151 406.308 460.215C405.198 461.279 403.863 461.811 402.301 461.811ZM428.931 491.286V522.662H420.918V470.504H428.66V478.654H429.339C430.561 476.005 432.418 473.877 434.908 472.27C437.398 470.64 440.612 469.825 444.551 469.825C448.083 469.825 451.173 470.55 453.822 471.998C456.47 473.425 458.53 475.598 460.002 478.518C461.473 481.416 462.209 485.083 462.209 489.52V522.662H454.195V490.063C454.195 485.966 453.131 482.774 451.003 480.488C448.875 478.178 445.955 477.024 442.242 477.024C439.684 477.024 437.398 477.579 435.383 478.688C433.391 479.797 431.818 481.416 430.663 483.544C429.509 485.672 428.931 488.252 428.931 491.286ZM497.906 543.307C494.035 543.307 490.707 542.809 487.922 541.813C485.138 540.84 482.818 539.549 480.961 537.942C479.128 536.357 477.668 534.66 476.581 532.849L482.965 528.366C483.689 529.317 484.606 530.404 485.715 531.626C486.824 532.871 488.341 533.947 490.265 534.852C492.212 535.78 494.759 536.244 497.906 536.244C502.116 536.244 505.591 535.226 508.33 533.188C511.07 531.151 512.439 527.959 512.439 523.612V513.018H511.76C511.171 513.969 510.334 515.146 509.247 516.549C508.183 517.93 506.644 519.164 504.629 520.251C502.637 521.315 499.943 521.847 496.547 521.847C492.337 521.847 488.556 520.851 485.206 518.858C481.878 516.866 479.241 513.969 477.294 510.166C475.37 506.362 474.408 501.744 474.408 496.311C474.408 490.969 475.347 486.317 477.226 482.355C479.105 478.371 481.72 475.292 485.07 473.119C488.42 470.923 492.292 469.825 496.683 469.825C500.079 469.825 502.773 470.391 504.765 471.523C506.78 472.632 508.319 473.9 509.383 475.326C510.47 476.73 511.307 477.884 511.896 478.79H512.711V470.504H520.453V524.156C520.453 528.638 519.434 532.283 517.397 535.09C515.382 537.919 512.665 539.991 509.247 541.304C505.852 542.639 502.071 543.307 497.906 543.307ZM497.634 514.648C500.849 514.648 503.565 513.912 505.784 512.441C508.002 510.969 509.689 508.853 510.843 506.091C511.998 503.329 512.575 500.024 512.575 496.175C512.575 492.418 512.009 489.101 510.877 486.226C509.745 483.351 508.07 481.099 505.852 479.469C503.633 477.839 500.894 477.024 497.634 477.024C494.238 477.024 491.409 477.884 489.145 479.605C486.904 481.325 485.217 483.634 484.085 486.532C482.976 489.429 482.421 492.644 482.421 496.175C482.421 499.798 482.987 503.001 484.119 505.785C485.274 508.547 486.972 510.72 489.213 512.305C491.477 513.867 494.284 514.648 497.634 514.648ZM584.699 470.504V477.296H557.669V470.504H584.699ZM565.547 458.008H573.561V507.721C573.561 509.984 573.889 511.682 574.546 512.814C575.225 513.923 576.085 514.671 577.126 515.055C578.19 515.418 579.311 515.599 580.488 515.599C581.371 515.599 582.095 515.553 582.661 515.463C583.227 515.35 583.68 515.259 584.02 515.191L585.65 522.39C585.106 522.594 584.348 522.797 583.374 523.001C582.401 523.228 581.167 523.341 579.673 523.341C577.409 523.341 575.191 522.854 573.018 521.881C570.867 520.907 569.079 519.424 567.653 517.432C566.249 515.44 565.547 512.927 565.547 509.894V458.008ZM605.888 491.286V522.662H597.874V453.118H605.888V478.654H606.567C607.789 475.96 609.623 473.821 612.068 472.236C614.535 470.629 617.818 469.825 621.915 469.825C625.469 469.825 628.582 470.538 631.253 471.964C633.925 473.368 635.996 475.53 637.467 478.45C638.961 481.348 639.708 485.038 639.708 489.52V522.662H631.695V490.063C631.695 485.921 630.619 482.717 628.469 480.454C626.341 478.167 623.387 477.024 619.606 477.024C616.98 477.024 614.626 477.579 612.543 478.688C610.483 479.797 608.853 481.416 607.653 483.544C606.476 485.672 605.888 488.252 605.888 491.286ZM676.237 523.748C671.212 523.748 666.877 522.639 663.232 520.42C659.61 518.179 656.814 515.055 654.845 511.048C652.898 507.019 651.924 502.333 651.924 496.99C651.924 491.648 652.898 486.939 654.845 482.864C656.814 478.767 659.553 475.575 663.062 473.289C666.594 470.98 670.714 469.825 675.422 469.825C678.139 469.825 680.821 470.278 683.47 471.183C686.119 472.089 688.53 473.56 690.703 475.598C692.876 477.613 694.608 480.284 695.898 483.612C697.189 486.939 697.834 491.037 697.834 495.904V499.299H657.629V492.372H689.684C689.684 489.429 689.096 486.803 687.918 484.494C686.764 482.185 685.111 480.363 682.961 479.027C680.833 477.692 678.32 477.024 675.422 477.024C672.23 477.024 669.469 477.816 667.137 479.401C664.828 480.963 663.051 483 661.806 485.513C660.561 488.026 659.938 490.72 659.938 493.595V498.213C659.938 502.152 660.617 505.491 661.976 508.23C663.356 510.947 665.269 513.018 667.714 514.444C670.159 515.848 673 516.549 676.237 516.549C678.343 516.549 680.244 516.255 681.942 515.667C683.662 515.055 685.145 514.15 686.39 512.95C687.635 511.728 688.597 510.211 689.277 508.4L697.019 510.573C696.204 513.199 694.834 515.508 692.91 517.5C690.986 519.47 688.609 521.009 685.779 522.118C682.949 523.205 679.769 523.748 676.237 523.748ZM757.971 543.307C754.1 543.307 750.772 542.809 747.988 541.813C745.203 540.84 742.883 539.549 741.026 537.942C739.193 536.357 737.733 534.66 736.646 532.849L743.03 528.366C743.754 529.317 744.671 530.404 745.78 531.626C746.89 532.871 748.406 533.947 750.331 534.852C752.277 535.78 754.824 536.244 757.971 536.244C762.181 536.244 765.656 535.226 768.395 533.188C771.135 531.151 772.504 527.959 772.504 523.612V513.018H771.825C771.237 513.969 770.399 515.146 769.312 516.549C768.248 517.93 766.709 519.164 764.694 520.251C762.702 521.315 760.008 521.847 756.613 521.847C752.402 521.847 748.621 520.851 745.271 518.858C741.943 516.866 739.306 513.969 737.359 510.166C735.435 506.362 734.473 501.744 734.473 496.311C734.473 490.969 735.412 486.317 737.291 482.355C739.17 478.371 741.785 475.292 745.135 473.119C748.486 470.923 752.357 469.825 756.748 469.825C760.144 469.825 762.838 470.391 764.83 471.523C766.845 472.632 768.384 473.9 769.448 475.326C770.535 476.73 771.372 477.884 771.961 478.79H772.776V470.504H780.518V524.156C780.518 528.638 779.499 532.283 777.462 535.09C775.447 537.919 772.731 539.991 769.312 541.304C765.917 542.639 762.136 543.307 757.971 543.307ZM757.699 514.648C760.914 514.648 763.63 513.912 765.849 512.441C768.067 510.969 769.754 508.853 770.908 506.091C772.063 503.329 772.64 500.024 772.64 496.175C772.64 492.418 772.074 489.101 770.942 486.226C769.81 483.351 768.135 481.099 765.917 479.469C763.698 477.839 760.959 477.024 757.699 477.024C754.303 477.024 751.474 477.884 749.21 479.605C746.969 481.325 745.282 483.634 744.15 486.532C743.041 489.429 742.487 492.644 742.487 496.175C742.487 499.798 743.053 503.001 744.184 505.785C745.339 508.547 747.037 510.72 749.278 512.305C751.542 513.867 754.349 514.648 757.699 514.648ZM817.055 523.748C812.03 523.748 807.695 522.639 804.05 520.42C800.428 518.179 797.632 515.055 795.663 511.048C793.716 507.019 792.742 502.333 792.742 496.99C792.742 491.648 793.716 486.939 795.663 482.864C797.632 478.767 800.371 475.575 803.88 473.289C807.412 470.98 811.532 469.825 816.24 469.825C818.957 469.825 821.639 470.278 824.288 471.183C826.937 472.089 829.348 473.56 831.521 475.598C833.694 477.613 835.426 480.284 836.716 483.612C838.007 486.939 838.652 491.037 838.652 495.904V499.299H798.447V492.372H830.502C830.502 489.429 829.914 486.803 828.736 484.494C827.582 482.185 825.929 480.363 823.779 479.027C821.651 477.692 819.138 477.024 816.24 477.024C813.048 477.024 810.287 477.816 807.955 479.401C805.646 480.963 803.869 483 802.624 485.513C801.379 488.026 800.756 490.72 800.756 493.595V498.213C800.756 502.152 801.435 505.491 802.794 508.23C804.174 510.947 806.087 513.018 808.532 514.444C810.977 515.848 813.818 516.549 817.055 516.549C819.161 516.549 821.062 516.255 822.76 515.667C824.48 515.055 825.963 514.15 827.208 512.95C828.453 511.728 829.415 510.211 830.095 508.4L837.837 510.573C837.022 513.199 835.652 515.508 833.728 517.5C831.804 519.47 829.427 521.009 826.597 522.118C823.767 523.205 820.587 523.748 817.055 523.748ZM858.856 491.286V522.662H850.842V470.504H858.584V478.654H859.263C860.486 476.005 862.342 473.877 864.832 472.27C867.322 470.64 870.537 469.825 874.476 469.825C878.007 469.825 881.097 470.55 883.746 471.998C886.395 473.425 888.455 475.598 889.926 478.518C891.398 481.416 892.133 485.083 892.133 489.52V522.662H884.12V490.063C884.12 485.966 883.056 482.774 880.928 480.488C878.8 478.178 875.879 477.024 872.167 477.024C869.609 477.024 867.322 477.579 865.308 478.688C863.316 479.797 861.742 481.416 860.588 483.544C859.433 485.672 858.856 488.252 858.856 491.286ZM927.966 523.748C923.257 523.748 919.126 522.628 915.572 520.387C912.04 518.145 909.279 515.01 907.286 510.981C905.317 506.951 904.332 502.242 904.332 496.855C904.332 491.422 905.317 486.679 907.286 482.627C909.279 478.575 912.04 475.428 915.572 473.187C919.126 470.946 923.257 469.825 927.966 469.825C932.675 469.825 936.795 470.946 940.326 473.187C943.88 475.428 946.642 478.575 948.612 482.627C950.604 486.679 951.6 491.422 951.6 496.855C951.6 502.242 950.604 506.951 948.612 510.981C946.642 515.01 943.88 518.145 940.326 520.387C936.795 522.628 932.675 523.748 927.966 523.748ZM927.966 516.549C931.543 516.549 934.486 515.633 936.795 513.799C939.104 511.965 940.813 509.554 941.922 506.566C943.031 503.578 943.586 500.341 943.586 496.855C943.586 493.368 943.031 490.12 941.922 487.109C940.813 484.098 939.104 481.665 936.795 479.808C934.486 477.952 931.543 477.024 927.966 477.024C924.389 477.024 921.446 477.952 919.137 479.808C916.828 481.665 915.119 484.098 914.01 487.109C912.901 490.12 912.346 493.368 912.346 496.855C912.346 500.341 912.901 503.578 914.01 506.566C915.119 509.554 916.828 511.965 919.137 513.799C921.446 515.633 924.389 516.549 927.966 516.549ZM963.833 522.662V470.504H971.575V478.654H972.254C973.341 475.869 975.095 473.708 977.517 472.168C979.939 470.606 982.848 469.825 986.244 469.825C989.685 469.825 992.549 470.606 994.835 472.168C997.144 473.708 998.944 475.869 1000.23 478.654H1000.78C1002.11 475.96 1004.12 473.821 1006.79 472.236C1009.46 470.629 1012.66 469.825 1016.4 469.825C1021.06 469.825 1024.88 471.285 1027.84 474.206C1030.81 477.103 1032.29 481.619 1032.29 487.754V522.662H1024.28V487.754C1024.28 483.906 1023.22 481.155 1021.12 479.503C1019.01 477.85 1016.53 477.024 1013.68 477.024C1010.01 477.024 1007.17 478.133 1005.16 480.352C1003.14 482.548 1002.14 485.332 1002.14 488.705V522.662H993.986V486.939C993.986 483.974 993.024 481.585 991.1 479.774C989.176 477.941 986.697 477.024 983.663 477.024C981.581 477.024 979.634 477.579 977.823 478.688C976.034 479.797 974.586 481.336 973.476 483.306C972.39 485.253 971.846 487.505 971.846 490.063V522.662H963.833ZM1046.94 522.662V470.504H1054.96V522.662H1046.94ZM1051.02 461.811C1049.45 461.811 1048.11 461.279 1046.98 460.215C1045.87 459.151 1045.31 457.872 1045.31 456.378C1045.31 454.884 1045.87 453.605 1046.98 452.541C1048.11 451.477 1049.45 450.945 1051.02 450.945C1052.58 450.945 1053.91 451.477 1055.02 452.541C1056.16 453.605 1056.72 454.884 1056.72 456.378C1056.72 457.872 1056.16 459.151 1055.02 460.215C1053.91 461.279 1052.58 461.811 1051.02 461.811ZM1090.82 523.748C1085.93 523.748 1081.72 522.594 1078.19 520.285C1074.66 517.976 1071.94 514.795 1070.04 510.743C1068.14 506.691 1067.19 502.061 1067.19 496.855C1067.19 491.557 1068.16 486.883 1070.11 482.831C1072.08 478.756 1074.82 475.575 1078.33 473.289C1081.86 470.98 1085.98 469.825 1090.69 469.825C1094.35 469.825 1097.66 470.504 1100.6 471.863C1103.54 473.221 1105.96 475.122 1107.83 477.567C1109.71 480.012 1110.88 482.864 1111.33 486.124H1103.32C1102.71 483.747 1101.35 481.642 1099.24 479.808C1097.16 477.952 1094.35 477.024 1090.82 477.024C1087.7 477.024 1084.96 477.839 1082.6 479.469C1080.27 481.076 1078.45 483.351 1077.14 486.294C1075.85 489.214 1075.2 492.644 1075.2 496.583C1075.2 500.612 1075.84 504.121 1077.1 507.109C1078.39 510.098 1080.2 512.418 1082.54 514.071C1084.89 515.723 1087.65 516.549 1090.82 516.549C1092.9 516.549 1094.79 516.187 1096.49 515.463C1098.19 514.738 1099.63 513.697 1100.81 512.339C1101.98 510.981 1102.82 509.351 1103.32 507.449H1111.33C1110.88 510.528 1109.76 513.301 1107.97 515.768C1106.2 518.213 1103.86 520.16 1100.94 521.609C1098.04 523.035 1094.67 523.748 1090.82 523.748ZM1149.94 522.662V470.504H1157.68V478.382H1158.23C1159.18 475.802 1160.9 473.708 1163.39 472.1C1165.88 470.493 1168.68 469.689 1171.81 469.689C1172.4 469.689 1173.13 469.701 1174.02 469.723C1174.9 469.746 1175.57 469.78 1176.02 469.825V477.975C1175.75 477.907 1175.12 477.805 1174.15 477.669C1173.2 477.511 1172.19 477.431 1171.13 477.431C1168.59 477.431 1166.33 477.963 1164.34 479.027C1162.37 480.069 1160.81 481.518 1159.65 483.374C1158.52 485.207 1157.95 487.301 1157.95 489.656V522.662H1149.94ZM1200.87 523.884C1197.56 523.884 1194.56 523.262 1191.87 522.016C1189.17 520.749 1187.04 518.926 1185.45 516.549C1183.87 514.15 1183.07 511.252 1183.07 507.857C1183.07 504.868 1183.66 502.446 1184.84 500.59C1186.02 498.711 1187.59 497.239 1189.56 496.175C1191.53 495.111 1193.7 494.319 1196.08 493.799C1198.48 493.255 1200.89 492.825 1203.31 492.508C1206.48 492.101 1209.05 491.795 1211.02 491.591C1213.01 491.365 1214.46 490.991 1215.37 490.471C1216.29 489.95 1216.76 489.045 1216.76 487.754V487.483C1216.76 484.132 1215.84 481.529 1214.01 479.673C1212.2 477.816 1209.45 476.888 1205.76 476.888C1201.93 476.888 1198.93 477.726 1196.76 479.401C1194.58 481.076 1193.06 482.864 1192.17 484.766L1184.57 482.05C1185.93 478.88 1187.74 476.413 1190 474.647C1192.29 472.859 1194.78 471.614 1197.47 470.912C1200.19 470.187 1202.86 469.825 1205.48 469.825C1207.16 469.825 1209.08 470.029 1211.26 470.436C1213.45 470.821 1215.57 471.625 1217.61 472.847C1219.67 474.07 1221.38 475.915 1222.73 478.382C1224.09 480.85 1224.77 484.155 1224.77 488.298V522.662H1216.76V515.599H1216.35C1215.81 516.731 1214.9 517.942 1213.63 519.232C1212.37 520.522 1210.68 521.62 1208.57 522.526C1206.47 523.431 1203.9 523.884 1200.87 523.884ZM1202.09 516.685C1205.26 516.685 1207.93 516.063 1210.1 514.818C1212.3 513.573 1213.95 511.965 1215.06 509.996C1216.19 508.026 1216.76 505.955 1216.76 503.782V496.447C1216.42 496.855 1215.67 497.228 1214.52 497.568C1213.39 497.885 1212.07 498.168 1210.58 498.417C1209.11 498.643 1207.67 498.847 1206.27 499.028C1204.89 499.186 1203.76 499.322 1202.9 499.435C1200.82 499.707 1198.87 500.148 1197.06 500.76C1195.28 501.348 1193.83 502.242 1192.72 503.442C1191.63 504.619 1191.09 506.227 1191.09 508.264C1191.09 511.048 1192.12 513.154 1194.18 514.58C1196.26 515.983 1198.9 516.685 1202.09 516.685ZM1247.41 491.286V522.662H1239.4V470.504H1247.14V478.654H1247.82C1249.04 476.005 1250.9 473.877 1253.39 472.27C1255.88 470.64 1259.09 469.825 1263.03 469.825C1266.56 469.825 1269.65 470.55 1272.3 471.998C1274.95 473.425 1277.01 475.598 1278.48 478.518C1279.95 481.416 1280.69 485.083 1280.69 489.52V522.662H1272.68V490.063C1272.68 485.966 1271.61 482.774 1269.48 480.488C1267.36 478.178 1264.44 477.024 1260.72 477.024C1258.17 477.024 1255.88 477.579 1253.86 478.688C1251.87 479.797 1250.3 481.416 1249.14 483.544C1247.99 485.672 1247.41 488.252 1247.41 491.286ZM1316.39 543.307C1312.52 543.307 1309.19 542.809 1306.4 541.813C1303.62 540.84 1301.3 539.549 1299.44 537.942C1297.61 536.357 1296.15 534.66 1295.06 532.849L1301.45 528.366C1302.17 529.317 1303.09 530.404 1304.2 531.626C1305.31 532.871 1306.82 533.947 1308.75 534.852C1310.69 535.78 1313.24 536.244 1316.39 536.244C1320.6 536.244 1324.07 535.226 1326.81 533.188C1329.55 531.151 1330.92 527.959 1330.92 523.612V513.018H1330.24C1329.65 513.969 1328.82 515.146 1327.73 516.549C1326.66 517.93 1325.13 519.164 1323.11 520.251C1321.12 521.315 1318.42 521.847 1315.03 521.847C1310.82 521.847 1307.04 520.851 1303.69 518.858C1300.36 516.866 1297.72 513.969 1295.78 510.166C1293.85 506.362 1292.89 501.744 1292.89 496.311C1292.89 490.969 1293.83 486.317 1295.71 482.355C1297.59 478.371 1300.2 475.292 1303.55 473.119C1306.9 470.923 1310.77 469.825 1315.16 469.825C1318.56 469.825 1321.25 470.391 1323.25 471.523C1325.26 472.632 1326.8 473.9 1327.86 475.326C1328.95 476.73 1329.79 477.884 1330.38 478.79H1331.19V470.504H1338.93V524.156C1338.93 528.638 1337.92 532.283 1335.88 535.09C1333.86 537.919 1331.15 539.991 1327.73 541.304C1324.33 542.639 1320.55 543.307 1316.39 543.307ZM1316.12 514.648C1319.33 514.648 1322.05 513.912 1324.27 512.441C1326.48 510.969 1328.17 508.853 1329.32 506.091C1330.48 503.329 1331.06 500.024 1331.06 496.175C1331.06 492.418 1330.49 489.101 1329.36 486.226C1328.23 483.351 1326.55 481.099 1324.33 479.469C1322.11 477.839 1319.38 477.024 1316.12 477.024C1312.72 477.024 1309.89 477.884 1307.63 479.605C1305.39 481.325 1303.7 483.634 1302.57 486.532C1301.46 489.429 1300.9 492.644 1300.9 496.175C1300.9 499.798 1301.47 503.001 1302.6 505.785C1303.76 508.547 1305.45 510.72 1307.69 512.305C1309.96 513.867 1312.77 514.648 1316.12 514.648ZM1375.47 523.748C1370.45 523.748 1366.11 522.639 1362.47 520.42C1358.84 518.179 1356.05 515.055 1354.08 511.048C1352.13 507.019 1351.16 502.333 1351.16 496.99C1351.16 491.648 1352.13 486.939 1354.08 482.864C1356.05 478.767 1358.79 475.575 1362.3 473.289C1365.83 470.98 1369.95 469.825 1374.66 469.825C1377.37 469.825 1380.06 470.278 1382.7 471.183C1385.35 472.089 1387.76 473.56 1389.94 475.598C1392.11 477.613 1393.84 480.284 1395.13 483.612C1396.42 486.939 1397.07 491.037 1397.07 495.904V499.299H1356.86V492.372H1388.92C1388.92 489.429 1388.33 486.803 1387.15 484.494C1386 482.185 1384.35 480.363 1382.2 479.027C1380.07 477.692 1377.55 477.024 1374.66 477.024C1371.46 477.024 1368.7 477.816 1366.37 479.401C1364.06 480.963 1362.29 483 1361.04 485.513C1359.79 488.026 1359.17 490.72 1359.17 493.595V498.213C1359.17 502.152 1359.85 505.491 1361.21 508.23C1362.59 510.947 1364.5 513.018 1366.95 514.444C1369.39 515.848 1372.23 516.549 1375.47 516.549C1377.58 516.549 1379.48 516.255 1381.18 515.667C1382.9 515.055 1384.38 514.15 1385.62 512.95C1386.87 511.728 1387.83 510.211 1388.51 508.4L1396.25 510.573C1395.44 513.199 1394.07 515.508 1392.14 517.5C1390.22 519.47 1387.84 521.009 1385.01 522.118C1382.18 523.205 1379 523.748 1375.47 523.748Z" fill="black"/>
</g>
<defs>
<clipPath id="clip0_731_33880">
<rect width="5492" height="715" fill="white"/>
</clipPath>
</defs>
</svg>
